<?xml version="1.0" standalone="no"?>
<!DOCTYPE svg PUBLIC "-//W3C//DTD SVG 20010904//EN"
 "http://www.w3.org/TR/2001/REC-SVG-20010904/DTD/svg10.dtd">
<svg version="1.0" xmlns="http://www.w3.org/2000/svg"
 width="1024.000000pt" height="1024.000000pt" viewBox="0 0 1024.000000 1024.000000"
 preserveAspectRatio="xMidYMid meet">
<metadata>
Created by potrace 1.14, written by Peter Selinger 2001-2017
</metadata>
<g transform="translate(0.000000,1024.000000) scale(0.100000,-0.100000)"
fill="#000000" stroke="none">
<path d="M3967 6938 c-6 -4 -14 -5 -18 -3 -3 3 -17 -7 -30 -21 l-24 -26 0
-1049 -1 -1049 1218 0 1218 0 0 23 c1 12 1 484 1 1050 l-1 1027 -25 27 -25 27
-1151 1 c-633 0 -1156 -3 -1162 -7z m2298 -60 c8 -5 11 -102 6 -200 -1 -15
-84 -16 -1159 -16 l-1159 0 0 104 c-1 78 3 106 13 112 16 9 2285 10 2299 0z
m0 -280 c6 -4 10 -318 9 -875 l-1 -868 -1160 -3 -1160 -2 0 872 c0 480 1 875
2 878 4 7 2299 5 2310 -2z"/>
<path d="M4090 6823 c-16 -7 -39 -33 -40 -45 0 -4 9 -16 21 -27 42 -39 97 16
58 58 -11 12 -21 21 -22 20 -1 0 -9 -3 -17 -6z"/>
<path d="M4355 6813 c-23 -22 -19 -58 8 -70 27 -12 44 -7 57 18 22 40 -34 84
-65 52z"/>
<path d="M4203 6797 c-14 -30 5 -57 40 -57 32 0 48 26 36 58 -12 31 -62 31
-76 -1z"/>
<path d="M5221 6279 c-91 -19 -151 -107 -145 -216 3 -78 38 -133 104 -167 45
-23 47 -23 405 -22 l360 1 41 28 c60 41 88 97 87 177 0 66 -13 102 -52 148
-11 12 -24 22 -30 22 -6 0 -11 4 -11 9 0 5 -17 12 -37 17 -46 9 -678 12 -722
3z m717 -64 c95 -57 102 -198 12 -260 -131 -91 -299 46 -230 188 42 86 140
118 218 72z m-531 -162 l-75 -75 -28 32 c-40 44 -68 90 -55 90 11 0 71 -61 71
-72 0 -19 22 -4 86 58 39 38 70 61 72 54 3 -7 -29 -46 -71 -87z"/>
<path d="M4222 6252 c-60 -2 -82 -6 -79 -15 3 -9 87 -12 341 -13 299 -1 363 3
344 21 -5 6 -496 11 -606 7z"/>
<path d="M4246 6083 c-4 -4 -28 -8 -53 -8 -28 0 -48 -5 -50 -12 -5 -15 -22
-14 327 -14 374 0 362 -1 358 14 -4 9 -69 12 -279 13 -151 0 -280 3 -286 7 -5
3 -13 3 -17 0z"/>
<path d="M4140 5900 c0 -19 27 -22 188 -22 221 1 212 0 212 16 0 12 -35 14
-200 15 -113 0 -200 -4 -200 -9z"/>
<path d="M4207 5572 c-48 -2 -67 -7 -64 -15 3 -9 88 -12 341 -13 297 0 362 4
344 22 -5 5 -526 10 -621 6z"/>
<path d="M5205 5566 c-87 -32 -135 -107 -130 -205 3 -65 14 -92 54 -134 56
-61 54 -61 431 -62 190 -1 358 2 374 7 88 23 140 97 140 198 0 105 -54 179
-143 199 -63 14 -687 11 -726 -3z m155 -54 c14 -5 35 -20 47 -33 93 -101 24
-261 -112 -261 -147 0 -211 176 -100 274 40 36 107 44 165 20z m382 -93 l31
-30 33 32 c43 42 66 34 25 -10 -17 -18 -31 -36 -31 -40 0 -4 14 -20 30 -36 20
-19 27 -32 20 -39 -7 -7 -21 1 -44 23 l-34 33 -33 -31 c-54 -52 -69 -38 -17
16 l32 33 -32 33 c-18 18 -32 36 -32 40 0 16 23 5 52 -24z"/>
<path d="M4144 5388 c-3 -5 -4 -12 -1 -14 7 -7 678 -6 685 1 4 3 0 10 -7 14
-18 12 -670 10 -677 -1z"/>
<path d="M4140 5213 c0 -15 -2 -15 223 -15 103 -1 172 3 179 10 17 17 -17 20
-214 20 -151 -1 -188 -4 -188 -15z"/>
<path d="M4759 4245 c0 -5 -1 -218 -2 -472 -2 -494 -4 -473 46 -473 21 0 22 4
19 77 l-3 78 24 -35 c37 -52 111 -102 173 -115 42 -9 137 -11 154 -4 8 4 36
15 62 24 63 22 133 91 166 163 52 114 35 269 -40 368 -116 152 -366 163 -494
22 -18 -21 -35 -37 -35 -36 -1 2 -3 91 -4 198 -2 107 -3 201 -4 208 -1 15 -61
13 -62 -3z m457 -353 c190 -97 194 -412 7 -503 -56 -27 -64 -29 -123 -30 -62
-1 -89 4 -135 28 -95 50 -143 140 -140 264 2 69 29 142 69 187 26 28 91 65
131 74 55 12 148 2 191 -20z"/>
<path d="M7596 4229 c-17 -13 -23 -27 -21 -42 6 -30 40 -56 65 -50 47 12 50
80 6 101 -20 9 -29 8 -50 -9z"/>
<path d="M2571 4200 c-6 -3 8 -57 35 -135 25 -72 47 -137 50 -145 7 -29 204
-601 209 -611 4 -5 21 -9 39 -9 l33 0 83 243 c46 133 88 253 93 267 6 14 11
30 13 35 22 76 89 254 94 248 3 -4 14 -33 24 -63 10 -30 20 -62 23 -70 3 -8 7
-19 9 -25 33 -100 145 -419 154 -434 6 -12 9 -21 7 -21 -3 0 10 -39 27 -87 31
-87 32 -88 67 -91 l35 -3 28 83 c15 46 32 92 36 103 8 20 133 393 136 408 1 4
2 8 3 10 10 17 99 293 96 298 -4 6 -54 4 -60 -3 -2 -3 -22 -60 -170 -498 -30
-91 -59 -172 -64 -180 -4 -8 -14 -39 -21 -67 -13 -50 -26 -69 -27 -40 -1 6
-11 39 -23 72 -22 58 -65 183 -156 450 -25 72 -48 137 -51 145 -4 8 -7 17 -8
20 -27 91 -40 109 -72 104 -7 -1 -17 -2 -21 -3 -5 0 -16 -22 -25 -48 -8 -27
-45 -133 -82 -238 -124 -354 -136 -390 -157 -453 -12 -34 -23 -61 -25 -58 -2
2 -21 55 -42 117 -159 475 -224 665 -232 673 -10 12 -44 15 -58 6z"/>
<path d="M6971 4196 c-8 -10 -101 -203 -101 -210 0 -2 -21 -48 -47 -102 -26
-54 -47 -101 -48 -104 -2 -8 -37 -83 -94 -203 -28 -60 -51 -110 -51 -112 0 -2
-16 -38 -35 -79 -19 -42 -35 -78 -35 -81 0 -3 15 -5 33 -5 32 0 35 3 71 83 21
45 53 115 72 155 19 40 34 75 34 77 0 2 15 37 34 77 19 40 69 150 111 243 43
94 80 174 84 178 4 4 24 -27 44 -70 58 -125 106 -232 149 -328 64 -142 83
-185 118 -260 78 -169 68 -155 107 -155 24 0 34 4 30 13 -4 10 -208 454 -338
737 -70 150 -72 154 -102 155 -15 1 -31 -3 -36 -9z"/>
<path d="M4127 3960 c-140 -54 -210 -165 -211 -330 0 -181 141 -327 323 -332
31 -1 75 1 99 5 49 8 131 49 162 82 l20 21 -25 24 c-14 13 -25 19 -25 13 0
-16 -71 -61 -120 -76 -70 -20 -162 -12 -223 20 -71 36 -153 148 -122 166 11 6
130 31 200 43 11 1 31 6 45 9 26 6 103 21 153 29 15 3 35 7 45 10 9 3 34 7 56
11 53 7 56 11 50 53 -15 101 -92 204 -183 245 -64 29 -179 32 -244 7z m229
-65 c43 -20 93 -72 115 -120 24 -53 24 -75 -1 -75 -26 0 -31 -1 -56 -11 -12
-4 -42 -10 -65 -14 -24 -3 -52 -8 -62 -11 -10 -3 -30 -7 -45 -9 -15 -3 -38 -7
-52 -10 -14 -3 -36 -7 -50 -10 -51 -9 -127 -24 -141 -27 -11 -2 -14 11 -13 63
2 120 66 202 187 240 55 17 124 11 183 -16z"/>
<path d="M5490 3969 c0 -9 36 -113 51 -144 8 -18 30 -72 34 -85 1 -3 4 -12 8
-20 3 -8 39 -105 80 -215 l75 -200 32 0 c30 0 34 4 51 50 11 28 24 59 29 70 5
11 24 61 43 110 88 230 131 335 136 335 3 0 23 -46 44 -103 21 -56 42 -111 47
-122 5 -11 21 -51 35 -90 15 -38 33 -83 40 -100 7 -16 23 -58 36 -92 22 -58
25 -62 55 -61 25 1 33 7 43 32 6 17 52 137 101 267 49 131 100 265 114 300 14
34 24 64 22 66 -2 2 -15 6 -28 8 -24 5 -28 -2 -72 -118 -25 -67 -46 -128 -46
-134 0 -7 -4 -13 -10 -13 -5 0 -10 -9 -10 -20 0 -11 -4 -28 -9 -38 -9 -15 -74
-180 -77 -192 0 -3 -4 -13 -7 -22 -4 -10 -9 -26 -12 -35 -3 -9 -9 -12 -14 -7
-4 5 -50 119 -101 254 -126 333 -123 328 -151 326 -14 -1 -29 -13 -42 -36 -11
-19 -19 -36 -18 -37 1 -4 -8 -30 -30 -88 -11 -27 -52 -137 -93 -244 l-73 -194
-42 107 c-22 59 -41 113 -41 119 0 7 -4 17 -9 22 -4 6 -34 82 -66 170 -31 88
-61 164 -66 170 -11 12 -59 15 -59 4z"/>
<path d="M7604 3972 c-7 -5 -10 -117 -10 -337 l1 -330 33 -3 32 -3 -2 337 c-3
329 -3 337 -23 340 -11 2 -25 0 -31 -4z"/>
</g>
</svg>
