<?xml version="1.0" standalone="no"?>
<!DOCTYPE svg PUBLIC "-//W3C//DTD SVG 20010904//EN"
 "http://www.w3.org/TR/2001/REC-SVG-20010904/DTD/svg10.dtd">
<svg version="1.0" xmlns="http://www.w3.org/2000/svg"
 width="1024.000000pt" height="1024.000000pt" viewBox="0 0 1024.000000 1024.000000"
 preserveAspectRatio="xMidYMid meet">
<metadata>
Created by potrace 1.14, written by Peter Selinger 2001-2017
</metadata>
<g transform="translate(0.000000,1024.000000) scale(0.100000,-0.100000)"
fill="#000000" stroke="none">
<path d="M3152 7935 c-48 -18 -71 -35 -87 -65 -13 -26 -15 -226 -15 -1670 0
-1555 1 -1640 18 -1641 9 0 869 -1 1911 -1 1308 -1 1895 2 1900 10 8 14 6
3237 -3 3283 -4 24 -15 40 -31 49 -14 7 -25 17 -25 21 0 4 -17 10 -37 15 -58
12 -3598 11 -3631 -1z m3624 -97 c15 -14 17 -39 16 -170 0 -84 -1 -156 -1
-160 -1 -5 -822 -8 -1826 -8 l-1825 0 0 164 c0 177 1 182 55 188 17 1 825 3
1797 3 1644 0 1769 -1 1784 -17z m18 -1803 c-1 -757 -4 -1378 -7 -1381 -4 -4
-2530 -8 -3520 -4 l-127 0 -1 573 c0 314 0 579 0 587 0 19 1 141 0 160 0 8 0
44 0 80 1 36 1 72 0 80 0 8 0 44 0 80 1 36 0 74 0 85 0 11 0 266 0 568 l1 547
1827 0 1828 0 -1 -1375z"/>
<path d="M3351 7748 c-33 -12 -51 -38 -46 -66 9 -52 54 -78 97 -56 72 37 25
151 -51 122z"/>
<path d="M3546 7730 c-39 -47 -11 -110 49 -110 87 0 89 118 3 134 -21 3 -33
-2 -52 -24z"/>
<path d="M3808 7753 c-52 -8 -77 -82 -40 -116 47 -43 130 2 115 62 -5 20 -42
67 -47 60 -1 -1 -13 -4 -28 -6z"/>
<path d="M5130 6900 c-8 -4 -32 -15 -52 -23 -57 -25 -113 -81 -143 -144 -21
-45 -27 -72 -27 -132 -1 -42 2 -89 5 -104 20 -95 107 -192 199 -221 47 -14
114 -16 588 -15 615 1 598 -2 690 89 68 69 89 129 86 245 -4 158 -69 249 -216
302 -26 9 -167 12 -575 11 -297 0 -547 -4 -555 -8z m1134 -104 c214 -125 127
-454 -120 -457 -176 -3 -297 182 -226 344 28 64 91 123 125 118 4 0 7 3 7 8 0
14 37 20 107 16 45 -2 74 -10 107 -29z m-718 -121 c4 -10 -32 -53 -110 -130
-63 -63 -120 -115 -125 -115 -8 0 -49 46 -94 105 -4 5 -16 21 -27 34 -24 29
-25 40 -5 47 9 4 23 -3 34 -17 10 -13 28 -34 38 -46 11 -12 27 -32 37 -46 l18
-23 106 103 c58 57 109 103 114 103 5 0 11 -7 14 -15z"/>
<path d="M3448 6849 c-6 -4 -8 -14 -5 -23 6 -14 60 -16 537 -16 469 0 531 2
537 15 3 9 2 19 -1 23 -9 9 -1054 9 -1068 1z"/>
<path d="M3570 6580 c-105 -4 -125 -8 -128 -21 -2 -9 5 -18 15 -21 28 -6 1051
-3 1058 3 3 3 3 14 -1 23 -5 14 -25 16 -143 16 -75 0 -257 1 -406 3 -148 1
-326 0 -395 -3z"/>
<path d="M3457 6312 c-19 -4 -23 -27 -6 -37 13 -9 596 -8 609 0 14 9 12 35 -2
36 -36 3 -587 4 -601 1z"/>
<path d="M5151 5788 c-24 -4 -49 -13 -57 -19 -8 -6 -14 -8 -14 -4 0 9 -68 -41
-99 -74 -77 -80 -99 -252 -48 -364 41 -90 121 -155 212 -173 54 -10 1040 -11
1089 -1 125 25 230 134 241 249 2 18 5 35 6 38 1 3 1 9 -1 15 -1 5 -3 35 -5
67 -7 102 -75 197 -173 244 l-57 28 -525 0 c-289 1 -545 -2 -569 -6z m171 -83
c21 -4 42 -13 49 -21 6 -8 16 -14 22 -14 15 0 63 -57 83 -99 25 -52 24 -154
-3 -206 -47 -91 -124 -138 -223 -138 -218 0 -326 259 -173 415 62 64 141 84
245 63z m633 -155 l49 -49 53 50 c28 27 56 49 62 49 29 0 18 -28 -30 -76 l-53
-54 47 -48 c46 -46 60 -82 34 -82 -7 0 -33 20 -57 45 -24 25 -48 45 -53 45 -4
0 -30 -20 -56 -45 -32 -30 -54 -43 -65 -39 -23 9 -20 18 17 51 17 16 41 39 51
51 l20 23 -53 53 c-49 49 -59 77 -28 76 7 -1 34 -23 62 -50z"/>
<path d="M3457 5782 c-11 -2 -17 -11 -15 -20 3 -16 48 -17 533 -20 346 -1 532
1 539 8 7 7 6 14 -2 23 -10 9 -129 12 -525 12 -282 0 -520 -1 -530 -3z"/>
<path d="M3443 5495 c-3 -9 -2 -19 1 -23 4 -3 243 -7 532 -7 530 0 559 2 539
35 -4 7 -179 10 -536 10 -468 0 -530 -2 -536 -15z"/>
<path d="M3463 5242 c-24 -4 -31 -26 -11 -38 14 -9 606 -9 616 0 3 4 2 15 -4
24 -10 15 -40 17 -295 17 -156 0 -294 -1 -306 -3z"/>
<path d="M4410 2973 l0 -753 48 2 47 3 0 118 c0 64 1 117 2 117 1 0 16 -20 33
-44 47 -70 99 -114 175 -150 200 -96 444 -56 598 99 155 156 195 425 94 634
-17 36 -38 74 -46 85 -42 54 -122 120 -176 145 -97 47 -113 50 -240 55 -73 2
-103 -2 -160 -21 -90 -30 -180 -92 -233 -161 l-42 -55 0 254 c1 140 1 293 0
340 l0 85 -50 0 -50 -1 0 -752z m618 212 c17 -3 34 -6 37 -6 3 1 31 -12 63
-28 125 -63 211 -190 228 -337 8 -65 8 -61 0 -127 -29 -236 -211 -392 -445
-380 -77 3 -118 15 -191 55 -195 107 -267 378 -161 603 79 169 279 262 469
220z"/>
<path d="M8872 3693 c-17 -6 -42 -57 -42 -83 0 -26 53 -82 72 -76 7 2 26 7 41
11 38 8 61 60 46 103 -14 41 -71 63 -117 45z"/>
<path d="M964 3638 c-3 -5 45 -167 63 -208 3 -8 7 -17 8 -20 0 -3 21 -63 45
-135 24 -71 45 -132 45 -135 1 -3 4 -12 8 -20 3 -8 36 -105 73 -215 37 -110
80 -236 96 -280 16 -44 30 -84 31 -88 1 -5 25 -77 53 -160 l51 -152 56 -3 c50
-2 56 0 62 20 3 13 10 32 15 43 5 11 30 81 55 155 26 74 60 173 76 220 17 47
39 110 49 140 10 30 51 147 90 260 39 113 76 221 82 240 5 19 14 40 18 45 5 6
9 15 9 20 2 21 33 105 40 110 7 4 30 -55 38 -99 2 -11 7 -24 12 -30 5 -6 16
-33 24 -61 8 -27 50 -149 92 -270 70 -201 97 -282 100 -295 0 -3 3 -9 6 -15 6
-10 30 -79 35 -100 2 -8 106 -310 118 -340 2 -5 3 -12 2 -15 -3 -14 30 -37 44
-30 8 4 21 5 28 3 33 -12 57 6 71 54 8 26 19 59 24 73 6 14 11 30 12 35 4 16
66 198 75 220 7 16 91 267 95 285 1 3 4 12 8 20 3 8 31 92 62 185 31 94 61
179 65 190 13 30 111 329 112 340 1 15 -70 24 -86 11 -7 -6 -26 -47 -41 -91
-103 -301 -282 -827 -311 -915 -66 -195 -87 -250 -95 -250 -5 0 -9 7 -9 15 0
8 -4 23 -9 33 -5 9 -14 35 -20 57 -7 22 -16 49 -21 60 -5 11 -25 67 -44 125
-20 58 -63 184 -96 280 -34 96 -63 182 -66 190 -2 8 -15 47 -29 85 -13 39 -51
147 -83 240 l-59 170 -52 0 -52 0 -30 -85 c-17 -47 -32 -92 -34 -100 -2 -8 -9
-28 -15 -45 -7 -16 -37 -102 -67 -190 -55 -160 -109 -317 -120 -345 -3 -8 -7
-19 -9 -25 -12 -38 -129 -375 -141 -405 -3 -8 -7 -20 -8 -27 -12 -52 -23 -36
-63 90 -24 72 -47 141 -52 152 -8 18 -210 614 -297 877 l-35 106 -50 4 c-27 1
-52 0 -54 -4z"/>
<path d="M7915 3640 c-22 -3 -40 -9 -41 -15 0 -5 -22 -54 -47 -109 -26 -54
-47 -100 -47 -101 0 -2 -20 -45 -44 -97 -24 -51 -66 -141 -94 -200 -27 -59
-47 -109 -44 -112 3 -3 0 -6 -6 -6 -7 0 -12 -4 -12 -9 0 -5 -16 -45 -36 -88
-20 -43 -48 -103 -62 -133 -14 -30 -26 -57 -27 -60 -2 -8 -38 -84 -85 -185
-23 -49 -51 -110 -62 -135 -19 -42 -67 -146 -75 -162 -2 -4 22 -7 53 -5 62 2
59 -1 97 87 14 30 38 84 55 120 34 76 58 128 119 265 55 123 76 168 83 175 3
3 6 11 8 18 1 7 37 88 79 180 41 92 84 185 94 207 9 22 34 76 54 120 20 44 41
91 46 104 8 21 23 22 25 3 0 -4 15 -38 33 -77 35 -74 164 -356 201 -440 12
-27 37 -81 54 -120 18 -38 45 -97 60 -130 15 -33 73 -161 130 -285 l102 -225
57 -2 c32 -1 56 2 54 5 -2 4 -11 23 -20 42 -8 19 -56 123 -105 230 -49 107
-102 222 -117 255 -15 33 -48 103 -72 155 -40 85 -63 135 -68 150 -1 3 -15 34
-32 70 -17 36 -43 92 -58 125 -15 33 -42 92 -60 130 -18 39 -44 97 -59 130
-63 137 -60 135 -131 125z"/>
<path d="M3495 3278 c-9 -6 -19 -7 -22 -4 -3 3 -18 -1 -34 -10 -16 -8 -32 -15
-36 -15 -38 -5 -144 -75 -176 -116 -10 -13 -25 -30 -33 -37 -13 -14 -88 -148
-85 -153 0 -2 1 -4 0 -5 -14 -48 -25 -151 -22 -218 10 -255 187 -458 435 -497
90 -14 248 -4 290 18 10 5 18 7 18 4 0 -8 110 53 135 74 11 9 31 29 44 44 l24
26 -30 31 -30 31 -39 -37 c-42 -40 -138 -89 -194 -100 -111 -20 -292 9 -344
54 -10 10 -20 15 -22 12 -7 -9 -109 98 -125 132 -47 97 -50 109 -24 114 18 3
76 14 100 19 6 2 26 5 45 9 19 3 80 15 135 26 55 11 112 22 126 25 14 2 75 13
135 25 60 12 120 23 134 26 14 2 45 9 70 14 25 5 60 12 79 15 46 8 50 11 46
38 -2 12 -6 38 -9 59 -14 92 -87 221 -159 284 -62 52 -139 92 -217 112 -34 8
-199 8 -215 0z m272 -119 c112 -53 202 -165 220 -274 5 -31 3 -35 -16 -36 -11
-1 -24 -2 -28 -4 -20 -5 -90 -19 -108 -21 -11 -1 -20 -3 -20 -4 0 -2 -18 -6
-65 -14 -19 -3 -46 -8 -60 -11 -14 -3 -38 -8 -55 -10 -16 -3 -37 -8 -45 -10
-8 -2 -31 -7 -50 -10 -19 -3 -66 -12 -105 -20 -38 -8 -83 -17 -99 -19 -16 -3
-54 -10 -84 -17 -41 -8 -56 -8 -62 1 -8 13 -5 94 6 154 4 23 8 43 8 46 3 21
62 123 90 155 108 126 317 168 473 94z"/>
<path d="M7171 3271 c-10 -9 -27 -41 -38 -71 -12 -30 -37 -95 -56 -145 -68
-179 -91 -240 -93 -250 -2 -8 -150 -396 -170 -445 -5 -11 -9 -9 -16 10 -6 14
-16 39 -24 55 -14 34 -117 306 -205 540 -32 88 -64 169 -69 180 -5 11 -19 46
-30 78 l-21 57 -44 0 -43 0 -42 -107 c-22 -60 -47 -124 -55 -143 -20 -49 -208
-542 -235 -617 -12 -35 -27 -63 -31 -63 -5 0 -9 4 -9 9 0 5 -5 22 -12 38 -6
15 -12 30 -13 33 -1 3 -5 14 -9 25 -4 11 -16 43 -26 70 -18 51 -57 153 -109
293 -41 106 -162 435 -166 448 -3 11 -80 18 -95 9 -7 -4 7 -48 60 -180 4 -11
13 -36 20 -55 7 -19 16 -44 21 -55 11 -27 57 -146 177 -465 55 -146 104 -273
107 -283 6 -14 17 -17 53 -15 49 3 47 1 86 98 14 36 31 79 37 95 7 17 13 35
15 40 1 6 35 91 74 190 39 99 73 185 74 191 1 7 8 19 15 28 7 9 11 16 8 16 -3
0 1 17 10 38 8 20 20 48 26 62 6 14 11 27 11 30 3 15 40 106 46 113 3 4 19
-25 35 -65 15 -40 57 -147 92 -238 36 -91 83 -212 105 -270 22 -58 45 -116 50
-130 11 -26 12 -29 50 -125 12 -33 27 -63 33 -67 5 -4 28 -7 50 -6 41 0 41 1
64 62 12 33 26 70 31 81 5 11 23 58 40 105 17 47 35 94 40 105 5 11 26 65 46
120 20 55 41 111 47 125 6 14 11 30 12 35 3 11 70 185 87 225 18 42 68 183 68
190 0 16 -62 17 -79 1z"/>
<path d="M8873 3282 c-7 -5 -10 -188 -9 -532 l1 -525 44 -3 c24 -2 47 1 50 6
3 6 6 243 6 528 l0 519 -29 2 c-16 1 -34 4 -41 7 -6 2 -16 1 -22 -2z"/>
</g>
</svg>
