<?xml version="1.0" encoding="UTF-8" standalone="no" ?>
<!DOCTYPE svg PUBLIC "-//W3C//DTD SVG 1.1//EN" "http://www.w3.org/Graphics/SVG/1.1/DTD/svg11.dtd">
<svg xmlns="http://www.w3.org/2000/svg" xmlns:xlink="http://www.w3.org/1999/xlink" version="1.1" width="1024" height="768" viewBox="0 0 1024 768" xml:space="preserve">
<desc>Created with Fabric.js 5.3.0</desc>
<defs>
</defs>
<g transform="matrix(1 0 0 1 512 384)" id="backgroundElement"  >
<rect style="stroke: none; stroke-width: 1; stroke-dasharray: none; stroke-linecap: butt; stroke-dashoffset: 0; stroke-linejoin: miter; stroke-miterlimit: 4; fill: rgb(0,0,0); fill-rule: nonzero; opacity: 1;"  x="-512" y="-384" rx="0" ry="0" width="1024" height="768" />
</g>
<g transform="matrix(1 0 0 1 512 383.82)"  >
<g style=""   >
		<g transform="matrix(1 0 0 1 -203.24 75.23)" id="path413753"  >
<path style="stroke: none; stroke-width: 0; stroke-dasharray: none; stroke-linecap: butt; stroke-dashoffset: 0; stroke-linejoin: miter; stroke-miterlimit: 2; fill: rgb(232,241,147); fill-rule: nonzero; opacity: 1;"  transform=" translate(-308.76, -468)" d="M 369.96 425.92 L 363.948 425.92 L 338.096 501.791 L 311.884 425.92 L 305.9922 425.92 L 279.65920000000006 501.67100000000005 L 254.04820000000007 425.9200000000001 L 247.55520000000007 425.9200000000001 L 276.1722000000001 510.0880000000001 L 282.6652000000001 510.0880000000001 L 308.8772000000001 434.5770000000001 L 334.96920000000006 510.0880000000001 L 341.46220000000005 510.0880000000001 z" stroke-linecap="round" />
</g>
		<g transform="matrix(1 0 0 1 -97.24 75.23)" id="path413755"  >
<path style="stroke: none; stroke-width: 0; stroke-dasharray: none; stroke-linecap: butt; stroke-dashoffset: 0; stroke-linejoin: miter; stroke-miterlimit: 2; fill: rgb(195,227,149); fill-rule: nonzero; opacity: 1;"  transform=" translate(-414.76, -468)" d="M 441.99 464.63 L 387.521 464.63 L 387.521 470.0408 L 441.99 470.0408 z M 441.99 425.913 L 387.521 425.913 L 387.521 431.444 L 441.99 431.444 z M 387.521 504.55 L 387.521 510.081 L 441.99 510.081 L 441.99 504.55 z" stroke-linecap="round" />
</g>
		<g transform="matrix(1 0 0 1 -9.65 75.23)" id="path413757"  >
<path style="stroke: none; stroke-width: 0; stroke-dasharray: none; stroke-linecap: butt; stroke-dashoffset: 0; stroke-linejoin: miter; stroke-miterlimit: 2; fill: rgb(157,214,151); fill-rule: nonzero; opacity: 1;"  transform=" translate(-502.34, -468)" d="M 531.8 473.77 C 528.6737999999999 470.1628 524.1046 467.8782 518.093 466.6758 C 522.3014 465.35319999999996 525.7883999999999 462.9484 528.313 459.5816 C 530.838 456.33509999999995 532.1607 452.36719999999997 532.1607 447.4376 C 532.1607 440.58389999999997 529.5154 435.29359999999997 524.4653000000001 431.56559999999996 C 519.4152 427.8382 512.3213000000001 425.91429999999997 503.1833000000001 425.91429999999997 L 468.0733000000001 425.91429999999997 L 468.0733000000001 431.20489999999995 L 502.9433000000001 431.20489999999995 C 510.2779000000001 431.20489999999995 515.9293000000001 432.64779999999996 519.8973000000001 435.53349999999995 C 523.8652000000001 438.41929999999996 525.9093 442.50739999999996 525.9093 447.91849999999994 C 525.9093 453.44949999999994 523.8652000000001 457.6578999999999 519.8973000000001 460.54349999999994 C 515.9294000000001 463.42929999999996 510.2781000000001 464.7518999999999 502.9433000000001 464.7518999999999 L 468.0733000000001 464.7518999999999 L 468.0733000000001 470.0424999999999 L 505.58830000000006 470.0424999999999 C 513.6444 470.0424999999999 519.8973000000001 471.4853999999999 524.1053 474.2508999999999 C 528.3137 477.1366999999999 530.4780000000001 481.4652999999999 530.4780000000001 487.3568999999999 C 530.4780000000001 493.3688999999999 528.3137 497.6978999999999 524.1053 500.5828999999999 C 519.8969000000001 503.4686999999999 513.7643 504.79129999999986 505.58830000000006 504.79129999999986 L 468.07830000000007 504.79129999999986 L 468.07830000000007 510.08189999999985 L 505.59330000000006 510.08189999999985 C 515.8133 510.08189999999985 523.5093 508.1580999999999 528.7993 504.31039999999985 C 533.9696 500.46269999999987 536.6149 495.0518999999998 536.6149 487.83739999999983 C 536.6149 482.18609999999984 534.9315 477.4963999999998 531.8053 473.76939999999985 z" stroke-linecap="round" />
</g>
		<g transform="matrix(1 0 0 1 97.12 75.23)" id="path413759"  >
<path style="stroke: none; stroke-width: 0; stroke-dasharray: none; stroke-linecap: butt; stroke-dashoffset: 0; stroke-linejoin: miter; stroke-miterlimit: 2; fill: rgb(120,200,154); fill-rule: nonzero; opacity: 1;"  transform=" translate(-609.12, -468)" d="M 670.32 425.92 L 664.3080000000001 425.92 L 638.4560000000001 501.791 L 612.2440000000001 425.92 L 606.3522000000002 425.92 L 580.0192000000002 501.67100000000005 L 554.4082000000002 425.9200000000001 L 547.9152000000001 425.9200000000001 L 576.5322000000001 510.0880000000001 L 583.0252000000002 510.0880000000001 L 609.2372000000001 434.5770000000001 L 635.3292000000001 510.0880000000001 L 641.8222000000002 510.0880000000001 z" stroke-linecap="round" />
</g>
		<g transform="matrix(1 0 0 1 201.26 75.23)" id="path413761"  >
<path style="stroke: none; stroke-width: 0; stroke-dasharray: none; stroke-linecap: butt; stroke-dashoffset: 0; stroke-linejoin: miter; stroke-miterlimit: 2; fill: rgb(82,187,156); fill-rule: nonzero; opacity: 1;"  transform=" translate(-713.25, -468)" d="M 716.32 425.92 L 710.1878 425.92 L 671.4708 510.088 L 678.0840000000001 510.088 L 713.1940000000001 432.653 L 748.4240000000001 510.088 L 755.0372000000001 510.088 z" stroke-linecap="round" />
</g>
		<g transform="matrix(1 0 0 1 261.38 75.23)" id="path413763"  >
<path style="stroke: none; stroke-width: 0; stroke-dasharray: none; stroke-linecap: butt; stroke-dashoffset: 0; stroke-linejoin: miter; stroke-miterlimit: 2; fill: rgb(45,173,158); fill-rule: nonzero; opacity: 1;"  transform=" translate(-773.38, -468)" d="M 770.31 425.92 L 770.31 510.088 L 776.4422 510.088 L 776.4422 425.92 z" stroke-linecap="round" />
</g>
		<g transform="matrix(1 0 0 1 0.05 -59.9)" id="icon"  >
<path style="stroke: none; stroke-width: 0.75; stroke-dasharray: none; stroke-linecap: butt; stroke-dashoffset: 0; stroke-linejoin: miter; stroke-miterlimit: 4; fill: rgb(232,241,147); fill-rule: nonzero; opacity: 1;"  transform=" translate(-512.05, -332.87)" d="M 512.22 275.83 C 477.795 275.827 451.98800000000006 275.84 451.824 275.8608 C 451.66721 275.88079999999997 451.3482 275.9459 451.1151 276.00509 C 450.882 276.06389 450.53213 276.17814 450.33697 276.25903999999997 C 450.14224 276.33953999999994 449.86285 276.47213 449.7169 276.55386 C 449.57095 276.63556 449.30824 276.80906 449.1331 276.93958 C 448.95796 277.07052 448.70108 277.29737 448.56223 277.44415 C 448.42295 277.59092999999996 448.22863 277.83029999999997 448.1298 277.97625 C 448.03139999999996 278.1222 447.8967 278.36030999999997 447.83123 278.505 C 447.76573 278.6497 447.66943 278.90532 447.61689 279.07338 L 447.52389 279.37863 L 447.51339 334.64363 L 447.50289000000004 389.90362999999996 L 576.60289 389.90362999999996 L 576.60289 334.82363 C 576.60289 285.73463 576.59589 279.70363 576.53949 279.37962999999996 C 576.50449 279.17988999999994 576.41815 278.86587999999995 576.34725 278.68197999999995 C 576.27635 278.49766999999997 576.10915 278.18408999999997 575.97571 277.98475999999994 C 575.8422700000001 277.7850199999999 575.58081 277.4764399999999 575.3948300000001 277.2987999999999 C 575.2088500000001 277.1211499999999 574.89777 276.8721999999999 574.7034400000001 276.7454399999999 C 574.5091200000002 276.6186699999999 574.2130500000001 276.45186999999993 574.0454100000001 276.3743099999999 C 573.87778 276.29720999999995 573.5954800000001 276.1849899999999 573.4182500000001 276.12535999999994 C 573.2406100000001 276.06575999999995 572.92285 275.97606999999994 572.71185 275.9256199999999 L 572.32863 275.83431999999993 z M 512.1575 278.8316 L 572.0395 278.8366 L 572.28678 278.9108 C 572.42272 278.9517 572.6491500000001 279.04049 572.7901 279.10763 C 572.9306300000001 279.17472999999995 573.1345500000001 279.30778 573.24297 279.40326999999996 C 573.35139 279.49836999999997 573.47649 279.64847 573.52152 279.73645 L 573.60322 279.89658 L 573.60322 290.82557999999995 L 450.50321999999994 290.82557999999995 L 450.50321999999994 279.89658 L 450.58291999999994 279.74186999999995 C 450.6267199999999 279.65676999999994 450.72552999999994 279.52836999999994 450.80184999999994 279.45664999999997 C 450.87854999999996 279.38494999999995 451.02327999999994 279.27524999999997 451.1237699999999 279.21311999999995 C 451.2238499999999 279.15061999999995 451.42691999999994 279.05423999999994 451.5749599999999 278.99878999999993 C 451.72257999999994 278.9428899999999 451.9406699999999 278.88118999999995 452.05950999999993 278.8615899999999 C 452.1804399999999 278.8411899999999 478.6035099999999 278.82778999999994 512.1575099999999 278.83118999999994 z M 512.0525 293.82759999999996 L 573.6025 293.82759999999996 L 573.6025 386.90259999999995 L 450.49249999999995 386.90259999999995 L 450.49249999999995 293.82759999999996 z M 458.30150000000003 282.19759999999997 C 458.15263000000004 282.1996 457.92328000000003 282.22639999999996 457.79276000000004 282.25809999999996 C 457.66182000000003 282.28979999999996 457.42746000000005 282.37735999999995 457.27151000000003 282.45284 C 457.07886 282.54584 456.89412000000004 282.68302 456.69563000000005 282.88151999999997 C 456.5025600000001 283.07417 456.3578600000001 283.26640999999995 456.26946000000004 283.44654999999995 C 456.19606000000005 283.5970899999999 456.10725 283.84103999999996 456.07263000000006 283.98864999999995 C 456.03763000000004 284.13667999999996 456.00923000000006 284.37019999999995 456.00923000000006 284.50780999999995 C 456.00923000000006 284.64543 456.03763000000004 284.87895 456.07263000000006 285.0269799999999 C 456.1072300000001 285.1745899999999 456.1960700000001 285.41853999999995 456.26946000000004 285.56907999999993 C 456.35746000000006 285.74880999999993 456.50298000000004 285.9422899999999 456.69563000000005 286.1345299999999 C 456.8878700000001 286.3271899999999 457.08135000000004 286.4727199999999 457.26108000000005 286.5607099999999 C 457.41162 286.6341099999999 457.65557000000007 286.72291999999993 457.80318000000005 286.7575299999999 C 457.95122000000003 286.79252999999994 458.18474000000003 286.8209299999999 458.32235000000003 286.8209299999999 C 458.45996 286.8209299999999 458.69348 286.79252999999994 458.84151 286.7575299999999 C 458.98913000000005 286.7229299999999 459.23307000000005 286.6340899999999 459.38361000000003 286.5607099999999 C 459.56376000000006 286.47230999999994 459.75600000000003 286.32760999999994 459.94865000000004 286.1345299999999 C 460.14630000000005 285.9368799999999 460.28433000000007 285.7513199999999 460.37649000000005 285.5603299999999 C 460.45159000000007 285.4056199999999 460.54038 285.1616699999999 460.57415000000003 285.0182299999999 C 460.60795 284.8751899999999 460.63545000000005 284.6454299999999 460.63545000000005 284.5078199999999 C 460.63545000000005 284.37020999999993 460.6079500000001 284.1404399999999 460.57415000000003 283.9974199999999 C 460.54035000000005 283.85396999999995 460.45155000000005 283.61002999999994 460.37649000000005 283.4553199999999 C 460.28429000000006 283.2643299999999 460.14631 283.0787699999999 459.94865000000004 282.8811099999999 C 459.75600000000003 282.68803999999994 459.56376000000006 282.54333999999994 459.38361000000003 282.4549399999999 C 459.23307000000005 282.3815399999999 458.98913000000005 282.2927299999999 458.84152000000006 282.2581199999999 C 458.6934800000001 282.2231199999999 458.45079000000004 282.1960199999999 458.30150000000003 282.1976199999999 z M 465.8075 282.19759999999997 C 465.65863 282.1996 465.42928 282.22639999999996 465.29876 282.25809999999996 C 465.16782 282.28979999999996 464.93346 282.37735999999995 464.77751 282.45284 C 464.58486 282.54584 464.40012 282.68302 464.20163 282.88151999999997 C 464.00856000000005 283.07417 463.86386000000005 283.26640999999995 463.77546 283.44654999999995 C 463.70206 283.5970899999999 463.61325 283.84103999999996 463.57863000000003 283.98864999999995 C 463.54363 284.13667999999996 463.51523000000003 284.37019999999995 463.51523000000003 284.50780999999995 C 463.51523000000003 284.64543 463.54363 284.87895 463.57863000000003 285.0269799999999 C 463.61323000000004 285.1745899999999 463.70207000000005 285.41853999999995 463.77546 285.56907999999993 C 463.86346000000003 285.74880999999993 464.00898 285.9422899999999 464.20163 286.1345299999999 C 464.39387000000005 286.3271899999999 464.58735 286.4727199999999 464.76709 286.5607099999999 C 464.91762 286.6341099999999 465.16157 286.72291999999993 465.30917999999997 286.7575299999999 C 465.45721999999995 286.79252999999994 465.69073999999995 286.8209299999999 465.82834999999994 286.8209299999999 C 465.96595999999994 286.8209299999999 466.19947999999994 286.79252999999994 466.34750999999994 286.7575299999999 C 466.49512999999996 286.7229299999999 466.73906999999997 286.6340899999999 466.88960999999995 286.5607099999999 C 467.06976 286.47230999999994 467.26199999999994 286.32760999999994 467.45464999999996 286.1345299999999 C 467.65229999999997 285.9368799999999 467.79033 285.7513199999999 467.88248999999996 285.5603299999999 C 467.95759 285.4056199999999 468.04637999999994 285.1616699999999 468.08014999999995 285.0182299999999 C 468.11394999999993 284.8751899999999 468.14144999999996 284.6454299999999 468.14144999999996 284.5078199999999 C 468.14144999999996 284.37020999999993 468.11395 284.1404399999999 468.08014999999995 283.9974199999999 C 468.04634999999996 283.85396999999995 467.95754999999997 283.61002999999994 467.88248999999996 283.4553199999999 C 467.79028999999997 283.2643299999999 467.65230999999994 283.0787699999999 467.45464999999996 282.8811099999999 C 467.26199999999994 282.68803999999994 467.06976 282.54333999999994 466.88960999999995 282.4549399999999 C 466.73907999999994 282.3815399999999 466.49512999999996 282.2927299999999 466.34750999999994 282.2581199999999 C 466.19947999999994 282.2231199999999 465.95678999999996 282.1960199999999 465.80749999999995 282.1976199999999 z M 473.3135 282.19759999999997 C 473.16463 282.1996 472.93528 282.22639999999996 472.80476 282.25809999999996 C 472.67382 282.28979999999996 472.43946 282.37735999999995 472.28351 282.45284 C 472.09085999999996 282.54584 471.90612 282.68302 471.70763 282.88151999999997 C 471.51456 283.07417 471.36986 283.26640999999995 471.28146 283.44654999999995 C 471.20806 283.5970899999999 471.11924999999997 283.84103999999996 471.08463 283.98864999999995 C 471.04963 284.13667999999996 471.02123 284.37019999999995 471.02123 284.50780999999995 C 471.02123 284.64543 471.04963 284.87895 471.08463 285.0269799999999 C 471.11923 285.1745899999999 471.20807 285.41853999999995 471.28146 285.56907999999993 C 471.36946 285.74880999999993 471.51498 285.9422899999999 471.70763 286.1345299999999 C 471.89987 286.3271899999999 472.09335 286.4727199999999 472.27308 286.5607099999999 C 472.42361999999997 286.6341099999999 472.66757 286.72291999999993 472.81518 286.7575299999999 C 472.96322 286.79252999999994 473.19674 286.8209299999999 473.33435 286.8209299999999 C 473.47195999999997 286.8209299999999 473.70547999999997 286.79252999999994 473.85350999999997 286.7575299999999 C 474.00113 286.7229299999999 474.24507 286.6340899999999 474.39561 286.5607099999999 C 474.57576 286.47230999999994 474.768 286.32760999999994 474.96065 286.1345299999999 C 475.1583 285.9368799999999 475.29633 285.7513199999999 475.38849 285.5603299999999 C 475.46359 285.4056199999999 475.55237999999997 285.1616699999999 475.58615 285.0182299999999 C 475.61994999999996 284.8751899999999 475.64745 284.6454299999999 475.64745 284.5078199999999 C 475.64745 284.37020999999993 475.61995 284.1404399999999 475.58615 283.9974199999999 C 475.55235 283.85396999999995 475.46355 283.61002999999994 475.38849 283.4553199999999 C 475.29629 283.2643299999999 475.15831 283.0787699999999 474.96065 282.8811099999999 C 474.768 282.68803999999994 474.57576 282.54333999999994 474.39562 282.4549399999999 C 474.24507 282.3815399999999 474.00113 282.2927299999999 473.85352 282.2581199999999 C 473.70548 282.2231199999999 473.46279 282.1960199999999 473.3135 282.1976199999999 z M 536.8015 310.73459999999994 C 527.4213000000001 310.7305999999999 519.5585 310.7425999999999 519.3295 310.76169999999996 C 519.1001500000001 310.78049999999996 518.7344400000001 310.8255 518.5163500000001 310.8622 C 518.2986800000001 310.89849999999996 517.9071100000001 310.98355 517.6468700000001 311.05109999999996 C 517.3866700000001 311.11859999999996 516.9830100000001 311.24125999999995 516.7503300000002 311.32381999999996 C 516.5176400000001 311.40641999999997 516.0643600000002 311.60194999999993 515.7433300000002 311.75874999999996 C 515.4222400000002 311.91553999999996 514.9922800000003 312.14948 514.7879800000003 312.27916999999997 C 514.5836500000003 312.40844 514.2375400000003 312.64946 514.0190100000003 312.81417999999996 C 513.8005000000003 312.97930999999994 513.4168600000003 313.31041 513.1658000000003 313.55101999999994 C 512.9151900000003 313.7912099999999 512.5603200000003 314.16650999999996 512.3772500000003 314.38501999999994 C 512.1946100000004 314.60310999999996 511.89562000000035 315.00425999999993 511.71380000000033 315.2761699999999 C 511.53158000000036 315.54804999999993 511.23676000000034 316.0642699999999 511.05869000000035 316.42376999999993 C 510.88064000000037 316.7828099999999 510.6567100000004 317.31116999999995 510.5616300000004 317.5975699999999 C 510.4665300000004 317.8836299999999 510.34187000000037 318.3110599999999 510.2847500000004 318.5470699999999 C 510.2276500000004 318.7830899999999 510.1471400000004 319.1863299999999 510.1054400000004 319.4436199999999 C 510.04164000000037 319.8397699999999 510.03034000000036 320.1746199999999 510.03034000000036 321.6416199999999 C 510.03034000000036 323.1282199999999 510.0411400000004 323.44261999999986 510.10874000000035 323.87261999999987 C 510.15174000000036 324.14783999999986 510.24844000000036 324.6177999999999 510.32350000000037 324.9172199999999 C 510.39900000000034 325.2166299999999 510.52949000000035 325.64821999999987 510.61331000000035 325.87631999999985 C 510.69751000000036 326.10441999999983 510.89604000000037 326.55685999999986 511.05491000000035 326.88131999999985 C 511.21379000000036 327.20574999999985 511.4998500000003 327.70489999999984 511.69042000000036 327.99051999999983 C 511.88141000000036 328.2761699999998 512.1578700000003 328.65813999999983 512.3050800000003 328.83914999999985 C 512.4522800000003 329.02053999999987 512.7604400000004 329.3570599999998 512.9902100000003 329.58723999999984 C 513.2199700000003 329.81741999999986 513.5865200000003 330.14810999999986 513.8041800000003 330.3224099999998 C 514.0222700000003 330.4962999999998 514.3771400000003 330.7565099999998 514.5927300000003 330.8999599999998 C 514.8087300000003 331.0438199999998 515.2123900000003 331.2790099999998 515.4892800000003 331.4232899999998 C 515.7665900000004 331.5675799999998 516.1810800000003 331.7598099999998 516.4104300000004 331.8502999999998 C 516.6397800000003 331.94119999999975 516.9775500000004 332.06254999999976 517.1610300000003 332.1205199999998 C 517.3445100000004 332.1780199999998 517.6543400000003 332.26312999999976 517.8490800000003 332.3089999999998 C 518.0442400000003 332.3552999999998 518.4099500000003 332.4274199999998 518.6622300000002 332.4695399999998 L 519.1209300000003 332.54623999999984 L 553.9409300000003 332.54623999999984 L 554.3996300000003 332.47033999999985 C 554.6519200000004 332.42863999999986 555.0555800000003 332.34689999999983 555.2961800000004 332.28851999999983 C 555.5372100000004 332.23011999999983 555.9500400000004 332.1079599999998 556.2135800000004 332.0166399999998 C 556.4775400000004 331.92533999999984 556.9746100000004 331.7138899999998 557.3185800000005 331.5466799999998 C 557.6626100000004 331.3794599999998 558.1504800000005 331.1067499999998 558.4027800000005 330.9403699999998 C 558.6550700000005 330.7743999999998 559.0399600000004 330.4958399999998 559.2576300000005 330.3215399999998 C 559.4757200000005 330.1468199999998 559.8426900000005 329.8140599999998 560.0737100000006 329.5817899999998 C 560.3047300000006 329.34951999999976 560.6204000000006 329.0017399999998 560.7755200000006 328.80950999999976 C 560.9302300000006 328.61726999999973 561.1946000000006 328.2532399999998 561.3626600000006 328.0009399999998 C 561.5302900000006 327.74864999999977 561.7533900000005 327.3825199999998 561.8580500000006 327.1873399999998 C 561.9627200000007 326.9917699999998 562.1320200000006 326.63272999999975 562.2341900000006 326.38918999999976 C 562.3359300000005 326.14565999999974 562.4877300000006 325.73574999999977 562.5707100000005 325.47845999999976 C 562.6541100000005 325.22116999999974 562.7662700000005 324.80125999999973 562.8209000000005 324.5456099999998 C 562.8751000000005 324.28998999999976 562.9447500000005 323.9121899999998 562.9752000000005 323.70575999999977 C 563.0152000000005 323.43887999999976 563.0315000000005 322.8429599999998 563.0315000000005 321.64155999999974 C 563.0315000000005 320.2061599999997 563.0198000000005 319.87765999999976 562.9544000000005 319.4523599999997 C 562.9119000000005 319.1771399999997 562.8142900000005 318.7055099999997 562.7375700000006 318.4039599999997 C 562.6612700000006 318.1024699999997 562.5303200000005 317.6708799999997 562.4469200000005 317.4448599999997 C 562.3635200000006 317.21884999999975 562.1771200000005 316.78724999999974 562.0324200000006 316.4865899999997 C 561.8877200000006 316.1855199999997 561.6562800000006 315.75933999999967 561.5182600000006 315.5395599999997 C 561.3802300000007 315.3197999999997 561.1292000000007 314.95617999999973 560.9611400000006 314.73143999999974 C 560.7930900000006 314.5070899999997 560.3831800000006 314.05088999999975 560.0504200000006 313.7181399999997 C 559.7176500000006 313.3853799999997 559.2672700000006 312.9800499999997 559.0492200000006 312.81701999999973 C 558.8315500000006 312.65438999999975 558.5125400000005 312.43086999999974 558.3403200000006 312.3207899999997 C 558.1685200000006 312.2106999999997 557.8399200000006 312.0217999999997 557.6105700000006 311.9004499999997 C 557.3812200000007 311.7790999999997 557.0380300000006 311.6135499999997 556.8479000000007 311.5326599999997 C 556.6577400000007 311.4513599999997 556.3337300000006 311.3287499999997 556.1277300000006 311.25951999999967 C 555.9217300000006 311.19071999999966 555.5614500000006 311.0856299999997 555.3266500000007 311.02599999999967 C 555.0918800000006 310.9663999999997 554.6657100000007 310.87796999999966 554.3788000000006 310.8300099999997 L 553.8575500000006 310.74200999999965 z M 551.5955 313.30709999999993 C 551.88865 313.30409999999995 552.31107 313.3216999999999 552.53375 313.3458999999999 C 552.7564300000001 313.3700999999999 553.1263100000001 313.4271999999999 553.35567 313.4730799999999 C 553.5850300000001 313.51897999999994 554.01662 313.63737999999995 554.3147700000001 313.7370499999999 C 554.6129300000001 313.8362499999999 555.0165900000001 313.9939199999999 555.2113200000001 314.0868999999999 C 555.4064800000001 314.1802999999999 555.7384100000002 314.3587899999999 555.9494100000002 314.4838899999999 C 556.1604200000002 314.6094099999999 556.4715000000002 314.8158199999999 556.6412200000002 314.9434199999999 C 556.8105200000002 315.0710299999999 557.0828200000002 315.2953599999999 557.2462800000002 315.4417299999999 C 557.4097500000001 315.5881099999999 557.6741300000002 315.8520599999999 557.8342600000002 316.0284499999999 C 557.9939700000002 316.2044199999999 558.2312400000002 316.4896599999999 558.3605100000002 316.6618699999999 C 558.4902000000002 316.8340999999999 558.7166300000002 317.1747799999999 558.8634100000002 317.4191499999999 C 559.0101900000002 317.6639199999999 559.2237000000001 318.0842599999999 559.3375400000001 318.3540999999999 C 559.4513800000001 318.6234799999999 559.5919100000001 318.9996099999999 559.6498700000001 319.1901999999999 C 559.7078700000001 319.3803499999999 559.7920700000001 319.7139499999999 559.83711 319.9320399999999 C 559.88251 320.1497099999999 559.93885 320.4870699999999 559.9630400000001 320.68137999999993 C 559.9871400000001 320.8757099999999 560.0068400000001 321.3110499999999 560.0068400000001 321.6488099999999 C 560.0068400000001 321.9865799999999 559.9785400000002 322.4777899999999 559.9443400000001 322.7401099999999 C 559.9097400000002 323.00281999999993 559.8275800000001 323.4306699999999 559.7616900000002 323.6912599999999 C 559.6957900000001 323.95146999999986 559.5715400000001 324.3522099999999 559.4856400000001 324.5815899999999 C 559.39934 324.8109399999999 559.2454400000001 325.1662199999999 559.14245 325.3709699999999 C 559.0398700000001 325.5757099999999 558.8655600000001 325.8892999999999 558.7546400000001 326.0681899999999 C 558.6437200000001 326.2466599999999 558.4410500000001 326.5402299999999 558.3038700000001 326.7203699999999 C 558.16709 326.9000999999999 557.9098 327.2015899999999 557.7325800000001 327.3900799999999 C 557.5553500000001 327.5785599999999 557.2463500000001 327.8700499999999 557.0466100000001 328.0376799999999 C 556.8468600000001 328.2053099999999 556.4974100000001 328.46593999999993 556.2705900000001 328.6168899999999 C 556.0433200000001 328.7674299999999 555.6513400000001 328.9934399999999 555.3990800000001 329.1193699999999 C 555.1468000000001 329.2448899999999 554.7623300000001 329.4137799999999 554.5442400000002 329.49466999999987 C 554.3265600000002 329.57556999999986 553.9604400000002 329.6885799999999 553.7310800000001 329.74653999999987 C 553.5017300000002 329.8040399999999 553.1076700000001 329.8824799999999 552.8553900000002 329.92084999999986 C 552.5609800000002 329.96504999999985 552.1352300000002 329.9900499999999 551.6669900000002 329.9900499999999 C 551.2036900000002 329.9900499999999 550.7696100000002 329.9650499999999 550.4784900000002 329.9212499999999 C 550.2262100000002 329.88374999999985 549.8042100000002 329.7961499999999 549.5410700000002 329.72650999999985 C 549.2775300000002 329.65690999999987 548.8926300000002 329.53468999999984 548.6862200000002 329.4550399999998 C 548.4793900000002 329.3753399999998 548.1224400000002 329.21525999999983 547.8930900000001 329.09975999999983 C 547.6637400000002 328.98382999999984 547.2963600000002 328.77157999999986 547.0770200000002 328.6281299999998 C 546.8572600000002 328.48425999999984 546.5478400000002 328.25865999999985 546.3889700000002 328.1260599999998 C 546.2300900000002 327.9934499999998 545.9807200000002 327.7703599999998 545.8347700000002 327.6302499999998 C 545.6888200000001 327.4901399999998 545.4273600000001 327.2065799999998 545.2539000000002 327.0001599999998 C 545.0800000000002 326.7937499999998 544.8268900000002 326.45597999999984 544.6909500000002 326.2495599999998 C 544.5554200000001 326.0431499999998 544.3360800000002 325.6582499999998 544.2038900000001 325.3947099999998 C 544.0717000000001 325.1307499999998 543.8961400000001 324.7275099999998 543.8131600000002 324.4981599999998 C 543.7305600000002 324.2688099999998 543.6246700000002 323.9310399999998 543.5779700000002 323.7471099999998 C 543.5316700000002 323.5636299999998 543.4637100000002 323.2537999999998 543.4270200000002 323.0590599999998 C 543.3895200000002 322.8576499999998 543.3511200000002 322.35932999999983 543.3386200000002 321.9039599999998 C 543.3244200000003 321.3939699999998 543.3336200000002 320.9544599999998 543.3666200000002 320.6946599999998 C 543.3941200000003 320.4703099999998 543.4550200000002 320.1079399999998 543.5013100000002 319.89027999999985 C 543.5476100000002 319.67218999999983 543.6589400000003 319.27020999999985 543.7485900000003 318.99665999999985 C 543.8382900000003 318.7230999999999 544.0217300000003 318.2727399999998 544.1568300000002 317.9958599999998 C 544.2919400000003 317.71896999999984 544.5137900000002 317.32365999999985 544.6501500000003 317.11722999999984 C 544.7860800000003 316.91081999999983 545.0100200000003 316.60098999999985 545.1472100000003 316.42917999999986 C 545.2844000000003 316.2569599999999 545.5458600000003 315.96630999999985 545.7276700000003 315.7828299999999 C 545.9099000000003 315.5993499999999 546.2018000000003 315.33288999999985 546.3761100000004 315.1906899999999 C 546.5504100000004 315.0484899999999 546.8598300000003 314.8203899999999 547.0637400000004 314.6840399999999 C 547.2676600000004 314.54808999999995 547.6617200000004 314.3220799999999 547.9394400000004 314.1819699999999 C 548.2171600000005 314.04227999999995 548.6954400000004 313.84419999999994 549.0028400000004 313.7416199999999 C 549.3097400000005 313.6394499999999 549.7584600000005 313.5168599999999 549.9990600000004 313.4693099999999 C 550.2400900000005 313.4218099999999 550.5778600000004 313.36714999999987 550.7496600000004 313.3475499999999 C 550.9218800000004 313.3283499999999 551.3026000000004 313.3100499999999 551.5957300000005 313.3071499999999 z M 531.0055 318.1470999999999 C 531.20649 318.1583999999999 531.29323 318.1858999999999 531.41207 318.27636999999993 C 531.4950699999999 318.33976999999993 531.58888 318.44233999999994 531.62058 318.5040599999999 C 531.65228 318.5661599999999 531.69108 318.67585999999994 531.70648 318.74882999999994 C 531.7222800000001 318.82142999999996 531.71348 318.96191999999996 531.6877800000001 319.06157999999994 L 531.6401800000001 319.2421499999999 L 527.8801800000001 323.00974999999994 C 525.2955800000001 325.59934999999996 524.0675800000001 326.8019499999999 523.9528800000002 326.85574999999994 C 523.8611800000002 326.89874999999995 523.7297900000002 326.93414999999993 523.6609800000001 326.93414999999993 C 523.5921800000001 326.93414999999993 523.4574800000001 326.8982499999999 523.3615800000001 326.8549499999999 C 523.2122900000002 326.78694999999993 522.8899500000001 326.40374999999995 521.0955800000002 324.1615499999999 C 519.9445800000002 322.72374999999994 518.9767800000002 321.4844499999999 518.9447800000002 321.4072499999999 C 518.9126800000001 321.3300499999999 518.8863800000001 321.20708999999994 518.8863800000001 321.1332799999999 C 518.8863800000001 321.0594799999999 518.9259800000001 320.9168599999999 518.9747800000001 320.8163599999999 C 519.0260800000001 320.7104399999999 519.1303200000001 320.5895099999999 519.2220700000001 320.5286299999999 C 519.3091700000001 320.4706299999999 519.4572500000002 320.41311999999994 519.5510700000001 320.4006099999999 C 519.6615800000001 320.38600999999994 519.7875200000001 320.4026099999999 519.9117800000001 320.4506099999999 L 520.1023500000001 320.5236099999999 L 521.8558500000001 322.7182099999999 C 522.8203500000002 323.9254099999999 523.6356500000002 324.9412099999999 523.6673500000002 324.9750099999999 C 523.7173500000001 325.0288099999999 524.1681700000001 324.5942899999999 527.0917500000002 321.6736099999999 C 528.9431500000002 319.8242099999999 530.5236500000002 318.2705099999999 530.6041500000001 318.2216099999999 C 530.7209100000001 318.1503099999999 530.8009800000001 318.1353099999999 531.0057300000001 318.1470099999999 z M 478.72749999999996 312.5092999999999 C 463.98349999999994 312.51029999999986 461.16749999999996 312.5201999999999 461.03249999999997 312.5680999999999 C 460.9441 312.5993999999999 460.82442 312.6690099999999 460.76644999999996 312.7223899999999 C 460.70804999999996 312.77618999999993 460.63509999999997 312.88042999999993 460.60339999999997 312.9542499999999 C 460.5721 313.0280499999999 460.5463 313.1765099999999 460.5463 313.2840899999999 C 460.5463 313.4175299999999 460.57919999999996 313.5363799999999 460.65013 313.65688999999986 C 460.71893 313.77447999999987 460.8136 313.8628899999999 460.93411 313.92084999999986 L 461.11467999999996 314.00844999999987 L 496.42168 314.00844999999987 L 496.60265 313.9025399999999 C 496.71441 313.8370399999999 496.81574 313.7336499999999 496.86703 313.6331499999999 C 496.91793 313.5330699999999 496.95043 313.38711999999987 496.95043 313.2574299999999 C 496.95043 313.1406699999999 496.92293 312.99221999999986 496.88953 312.9271699999999 C 496.85573 312.8620699999999 496.77069 312.7607899999999 496.70022 312.7015699999999 C 496.63012 312.6423699999999 496.50256 312.5743899999999 496.41749 312.55061999999987 C 496.31199 312.52141999999986 490.66619 312.50811999999985 478.72749 312.5093199999999 z M 478.72749999999996 321.7664999999999 C 463.98349999999994 321.76749999999987 461.16749999999996 321.7773999999999 461.03249999999997 321.8252999999999 C 460.9441 321.8565999999999 460.82442 321.9262099999999 460.76644999999996 321.9795899999999 C 460.70804999999996 322.03338999999994 460.63509999999997 322.13762999999994 460.60339999999997 322.2114499999999 C 460.5721 322.2852499999999 460.5463 322.4337099999999 460.5463 322.5412899999999 C 460.5463 322.6747299999999 460.57919999999996 322.7935799999999 460.65013 322.9140899999999 C 460.71893 323.0316799999999 460.8136 323.1200899999999 460.93411 323.17804999999987 L 461.11467999999996 323.2656499999999 L 496.42168 323.2656499999999 L 496.60265 323.1597399999999 C 496.71441 323.0942399999999 496.81574 322.9908499999999 496.86703 322.8903499999999 C 496.91793 322.7902699999999 496.95043 322.6443199999999 496.95043 322.5146299999999 C 496.95043 322.3978699999999 496.92293 322.2494199999999 496.88953 322.1843699999999 C 496.85573 322.1192699999999 496.77069 322.0179899999999 496.70022 321.9587699999999 C 496.63012 321.8995699999999 496.50256 321.8315899999999 496.41749 321.8078199999999 C 496.31199 321.7786199999999 490.66619 321.76531999999986 478.72749 321.7665199999999 z M 471.24229999999994 330.7746999999999 C 462.83779999999996 330.7751199999999 461.1662999999999 330.7846999999999 461.03229999999996 330.8326999999999 C 460.9439 330.86399999999986 460.82421999999997 330.9336099999999 460.76624999999996 330.9869899999999 C 460.70784999999995 331.0407899999999 460.63489999999996 331.1450299999999 460.60319999999996 331.21884999999986 C 460.57189999999997 331.29264999999987 460.54609999999997 331.44110999999987 460.54609999999997 331.5486999999999 C 460.54609999999997 331.68212999999986 460.57899999999995 331.80097999999987 460.64993 331.9214899999999 C 460.71873 332.0390799999999 460.8134 332.1274799999999 460.93390999999997 332.1854499999999 L 461.11447999999996 332.2730499999999 L 481.35648 332.2730499999999 L 481.51827 332.1904499999999 C 481.60706999999996 332.14544999999987 481.72135 332.0499199999999 481.77180999999996 331.9786099999999 C 481.82230999999996 331.9077099999999 481.88064999999995 331.7746999999999 481.90108 331.68295999999987 C 481.92488 331.57745999999986 481.92278 331.4573599999999 481.89508 331.3547799999999 C 481.87128 331.2655799999999 481.80128 331.1329399999999 481.73995 331.0595399999999 C 481.67825000000005 330.98653999999993 481.55188000000004 330.8923199999999 481.45931 330.8502099999999 L 481.29056 330.7730099999999 z M 536.7942999999999 348.2626999999999 C 527.4141 348.2576999999999 519.5512999999999 348.27069999999986 519.3222999999999 348.2897999999999 C 519.09295 348.3085999999999 518.7272399999999 348.3535999999999 518.50915 348.3903099999999 C 518.29148 348.42660999999987 517.89991 348.5116599999999 517.63968 348.5792099999999 C 517.37947 348.6468099999999 516.97581 348.7693599999999 516.74312 348.8519199999999 C 516.51044 348.9345199999999 516.05716 349.1300599999999 515.73612 349.2868599999999 C 515.41503 349.4436499999999 514.9850700000001 349.67757999999986 514.7807700000001 349.8072699999999 C 514.57644 349.9365399999999 514.2303300000001 350.1775699999999 514.01179 350.3422899999999 C 513.7932900000001 350.5074099999999 513.40965 350.8385199999999 513.15859 351.0791199999999 C 512.90798 351.31930999999986 512.5531100000001 351.6946099999999 512.37004 351.9131199999999 C 512.1874 352.1312099999999 511.88841 352.5323699999999 511.70659 352.80426999999986 C 511.52437000000003 353.07614999999987 511.22955 353.59236999999985 511.05148 353.9518699999999 C 510.87343000000004 354.31090999999986 510.64950000000005 354.8392699999999 510.55442000000005 355.1256699999999 C 510.45932000000005 355.4117399999999 510.33466000000004 355.8391599999999 510.27754000000004 356.0751699999999 C 510.22044000000005 356.31119999999993 510.13993000000005 356.7144299999999 510.09823000000006 356.9717199999999 C 510.03443000000004 357.36786999999987 510.02313000000004 357.7027199999999 510.02313000000004 359.16971999999987 C 510.02313000000004 360.6563199999999 510.03393000000005 360.97071999999986 510.10153 361.40071999999986 C 510.14453000000003 361.67593999999985 510.24122 362.14588999999984 510.31628 362.44531999999987 C 510.39178 362.7447299999999 510.52228 363.17631999999986 510.60609 363.40441999999985 C 510.69029 363.63250999999985 510.88882 364.08495999999985 511.04769 364.40941999999984 C 511.20657 364.7338399999998 511.49262999999996 365.23298999999986 511.6832 365.5186199999998 C 511.87419 365.80425999999983 512.15065 366.1862399999998 512.29785 366.3672399999998 C 512.44506 366.5486399999998 512.75322 366.8851499999998 512.9829900000001 367.11533999999983 C 513.2127500000001 367.3455299999998 513.5793000000001 367.6761999999998 513.7969600000001 367.8505099999998 C 514.0150500000001 368.0243999999998 514.3699200000001 368.2846099999998 514.5855100000001 368.4280599999998 C 514.8015100000001 368.5719199999998 515.2051700000001 368.8071099999998 515.4820600000002 368.9513899999998 C 515.7593700000002 369.09566999999976 516.1738600000001 369.2879099999998 516.4032100000002 369.3783999999998 C 516.6325600000001 369.46929999999975 516.9703300000002 369.59064999999975 517.1538100000001 369.6486099999998 C 517.3372900000002 369.7061099999998 517.6471300000002 369.7912299999998 517.8418600000001 369.8370999999998 C 518.0370200000001 369.88339999999977 518.4027300000001 369.9555299999998 518.6550100000001 369.9976499999998 L 519.1137100000001 370.0743499999998 L 553.9337100000001 370.0743499999998 L 554.3924100000002 369.9984499999998 C 554.6447000000002 369.95674999999983 555.0483500000001 369.8750099999998 555.2889600000002 369.8166299999998 C 555.5299900000002 369.7582299999998 555.9428200000002 369.6360699999998 556.2063600000002 369.5447499999998 C 556.4703200000002 369.4534499999998 556.9673900000003 369.2420099999998 557.3113600000003 369.0747899999998 C 557.6553900000002 368.9075699999998 558.1432600000003 368.6348599999998 558.3955600000003 368.4684699999998 C 558.6478500000003 368.3025099999998 559.0327400000002 368.0239499999998 559.2504100000003 367.84964999999977 C 559.4685100000004 367.6749299999998 559.8354600000004 367.34215999999975 560.0664900000004 367.1098899999998 C 560.2975100000003 366.87761999999975 560.6131800000004 366.5298399999998 560.7683000000004 366.3376199999998 C 560.9230100000004 366.14537999999976 561.1873900000004 365.7813399999998 561.3554400000004 365.5290399999998 C 561.5230700000004 365.2767599999998 561.7461600000004 364.9106299999998 561.8508400000004 364.7154399999998 C 561.9555000000004 364.5198699999998 562.1248000000004 364.16082999999975 562.2269700000004 363.91728999999975 C 562.3287100000003 363.67376999999976 562.4805100000004 363.26384999999976 562.5634800000004 363.0065699999997 C 562.6468800000004 362.74926999999974 562.7590600000003 362.32934999999975 562.8136800000003 362.07371999999975 C 562.8678800000004 361.81809999999973 562.9375300000003 361.44029999999975 562.9679700000003 361.23386999999974 C 563.0080700000003 360.9669899999997 563.0242700000002 360.37106999999975 563.0242700000002 359.1696699999997 C 563.0242700000002 357.7342699999997 563.0125700000002 357.40576999999973 562.9471700000003 356.9804699999997 C 562.9046700000002 356.7052499999997 562.8070500000002 356.2336199999997 562.7303200000002 355.93206999999967 C 562.6540200000003 355.6305699999997 562.5230800000003 355.19897999999966 562.4396800000002 354.9729699999997 C 562.3562800000002 354.7469499999997 562.1698800000001 354.3153499999997 562.0251700000002 354.0146899999997 C 561.8804800000003 353.7136199999997 561.6490400000002 353.28743999999966 561.5110200000003 353.0676699999997 C 561.3729900000003 352.8479099999997 561.1219600000003 352.4842899999997 560.9539000000002 352.2595399999997 C 560.7858500000002 352.0351999999997 560.3759400000002 351.57899999999967 560.0431800000002 351.24623999999966 C 559.7104100000003 350.91347999999965 559.2600300000003 350.50814999999966 559.0419800000002 350.34510999999964 C 558.8243100000002 350.18247999999966 558.5053000000001 349.9589699999996 558.3330800000002 349.8488799999996 C 558.1612800000003 349.7387899999996 557.8326800000002 349.5498899999996 557.6033300000003 349.4285399999996 C 557.3739800000003 349.3071899999996 557.0307900000003 349.1416499999996 556.8406500000002 349.0607499999996 C 556.6505000000002 348.9794499999996 556.3264900000003 348.8568299999996 556.1204900000002 348.7876199999996 C 555.9144900000002 348.7188199999996 555.5542100000002 348.61372999999963 555.3194100000003 348.5540999999996 C 555.0846400000003 348.4944999999996 554.6584700000003 348.4060599999996 554.3715700000002 348.3581099999996 L 553.8503200000002 348.2701099999996 z M 521.5642999999999 350.8351999999999 C 521.8574499999999 350.8321999999999 522.2798699999998 350.84979999999985 522.5025499999999 350.87399999999985 C 522.7252299999999 350.89809999999983 523.09511 350.95529999999985 523.3244799999999 351.00117999999986 C 523.5538199999999 351.0470799999999 523.9854199999999 351.16546999999986 524.2835699999998 351.2651299999999 C 524.5817299999999 351.3644299999999 524.9849699999999 351.5220099999999 525.1801199999999 351.6149999999999 C 525.3752799999999 351.70839999999987 525.7072099999999 351.8868799999999 525.9182199999999 352.0119799999999 C 526.1292199999999 352.1375099999999 526.4402999999999 352.34391999999986 526.6100099999999 352.4715199999999 C 526.7793199999999 352.59911999999986 527.0516199999998 352.8234699999999 527.2150899999999 352.9698299999999 C 527.3785499999999 353.1161999999999 527.64501 353.3826599999999 527.8076399999999 353.5615599999999 C 527.9702799999999 353.7404499999999 528.2233899999999 354.0481999999999 528.3705899999999 354.24543999999986 C 528.5173799999999 354.44225999999986 528.7529799999999 354.8042199999999 528.8935099999999 355.04943999999983 C 529.0344599999999 355.2950599999998 529.2500499999999 355.74541999999985 529.3730599999999 356.05023999999986 C 529.4960799999999 356.35548999999986 529.6436899999999 356.78708999999986 529.7008299999999 357.00933999999984 C 529.7583299999999 357.23159999999984 529.8359299999998 357.57853999999986 529.8734599999999 357.78078999999985 C 529.9130599999999 357.9947099999998 529.9505599999999 358.4792699999999 529.9631599999999 358.94038999999987 C 529.9789599999999 359.53127999999987 529.9681599999999 359.8610899999999 529.91766 360.2376899999999 C 529.88096 360.51581999999985 529.79715 360.9565899999999 529.7308499999999 361.2176299999999 C 529.66455 361.47908999999987 529.5402799999999 361.8802499999999 529.4543799999999 362.10960999999986 C 529.3680799999998 362.3389599999999 529.2141799999999 362.69423999999987 529.1111799999999 362.89898999999986 C 529.0085999999999 363.10372999999987 528.8342999999999 363.41731999999985 528.7233699999999 363.59620999999987 C 528.61245 363.7746799999999 528.4097899999999 364.06824999999986 528.2725999999999 364.24838999999986 C 528.1358199999999 364.42811999999986 527.8785399999999 364.72961999999984 527.7013099999999 364.91809999999987 C 527.5240899999999 365.1065799999999 527.2150899999999 365.39806999999985 527.0153499999999 365.5656999999999 C 526.8155999999999 365.73332999999985 526.4661499999999 365.9939599999999 526.2393199999999 366.14490999999987 C 526.0120599999999 366.29544999999985 525.6200799999999 366.5214599999999 525.3678199999999 366.6473999999999 C 525.1155399999999 366.7729199999999 524.73106 366.9417999999999 524.5129699999999 367.0226999999999 C 524.2952999999999 367.10359999999986 523.9291699999999 367.21659999999986 523.6998199999999 367.27456999999987 C 523.47047 367.3320699999999 523.0764099999999 367.4105099999999 522.8241199999999 367.4488699999999 C 522.5297199999999 367.4930699999999 522.1039599999999 367.5180699999999 521.6357199999999 367.5180699999999 C 521.1724299999998 367.5180699999999 520.7383399999999 367.4929699999999 520.4473199999999 367.4492699999999 C 520.1950299999999 367.4117699999999 519.7730299999998 367.3241699999999 519.5098999999999 367.2545299999999 C 519.2463499999999 367.1849299999999 518.8614599999999 367.06270999999987 518.6550499999998 366.98305999999985 C 518.4482199999999 366.9034599999998 518.0912599999998 366.74328999999983 517.8619199999998 366.62777999999986 C 517.6325699999999 366.51184999999987 517.2651899999998 366.2995999999999 517.0458499999999 366.15614999999985 C 516.8260899999999 366.01227999999986 516.5166699999999 365.78668999999985 516.3577999999999 365.65407999999985 C 516.1989199999999 365.5214799999998 515.9495499999999 365.29837999999984 515.8035999999998 365.15826999999985 C 515.6576499999998 365.01815999999985 515.3961899999998 364.73459999999983 515.2227199999999 364.52817999999985 C 515.0488299999998 364.32176999999984 514.7957099999999 363.98399999999987 514.6597699999999 363.77757999999983 C 514.5242499999998 363.5711699999998 514.3048999999999 363.18627999999984 514.1727199999999 362.92272999999983 C 514.0405299999999 362.65876999999983 513.8649699999999 362.25552999999985 513.78199 362.02617999999984 C 513.69939 361.79682999999983 513.5935 361.45905999999985 513.5468 361.2751299999998 C 513.5005 361.09164999999985 513.43254 360.78182999999984 513.3958399999999 360.58707999999984 C 513.3583399999999 360.38567999999987 513.3199399999999 359.88735999999983 513.3074399999999 359.43197999999984 C 513.29324 358.9219899999998 513.3024399999999 358.48247999999984 513.33544 358.22267999999985 C 513.36294 357.99833999999987 513.4238399999999 357.63595999999984 513.4701299999999 357.4182999999999 C 513.5164299999999 357.2006299999999 513.62776 356.7982299999999 513.71741 356.5246799999999 C 513.80711 356.2511299999999 513.99055 355.8007699999999 514.12565 355.52387999999985 C 514.26076 355.24698999999987 514.4826099999999 354.8516799999999 514.6189599999999 354.64524999999986 C 514.7548999999999 354.43883999999986 514.9788399999999 354.1290099999999 515.1160299999999 353.9571999999999 C 515.2532199999999 353.7849799999999 515.5146799999999 353.4943299999999 515.6964899999999 353.3108499999999 C 515.8787199999999 353.1273699999999 516.1706199999999 352.8609099999999 516.3449199999999 352.71870999999993 C 516.5192299999999 352.5765099999999 516.8286399999998 352.3484199999999 517.0325599999999 352.21205999999995 C 517.2364699999998 352.07610999999997 517.6305399999999 351.85009999999994 517.9082599999999 351.70998999999995 C 518.18598 351.5703 518.6642599999999 351.37221999999997 518.9716599999999 351.2696399999999 C 519.27857 351.1674699999999 519.7272899999999 351.0448799999999 519.9678899999999 350.99733999999995 C 520.20891 350.94973999999996 520.5466799999999 350.89516999999995 520.7184899999999 350.8755699999999 C 520.8907099999999 350.8563699999999 521.2714299999999 350.8380699999999 521.5645599999999 350.83516999999995 z M 543.2772999999999 354.71159999999986 C 543.3347999999999 354.70959999999985 543.4470199999998 354.72659999999985 543.5274999999998 354.7490999999999 C 543.6405099999998 354.7807999999999 544.0483299999999 355.16485999999986 545.3414999999998 356.4582999999999 C 546.2584499999998 357.3761499999999 547.0278999999998 358.12709999999987 547.0511999999998 358.12709999999987 C 547.0744999999997 358.12709999999987 547.8439499999997 357.3760599999999 548.7608999999998 356.4582999999999 C 550.0602999999998 355.1580999999999 550.4626999999998 354.7790999999999 550.5810999999998 354.7431999999999 C 550.6690999999997 354.7164999999999 550.8154499999997 354.7094999999999 550.9267799999998 354.72609999999986 C 551.0552199999997 354.7452999999999 551.1698999999998 354.79829999999987 551.2666399999998 354.88372999999984 C 551.3471399999999 354.9542299999998 551.4401099999998 355.0647099999998 551.4734699999998 355.1289199999998 C 551.5068699999998 355.19311999999985 551.5338699999998 355.3415899999998 551.5338699999998 355.4591899999998 C 551.5338699999998 355.5763699999998 551.5130699999997 355.7131499999998 551.4879699999998 355.7635999999998 C 551.4625699999998 355.81359999999984 550.6886199999998 356.6096699999998 549.7678699999998 357.5328999999998 L 548.0940699999998 359.2112999999998 L 549.7495699999997 360.8688999999998 C 550.6598499999997 361.7804499999998 551.4245699999997 362.57939999999985 551.4483699999997 362.6440999999998 C 551.4724699999997 362.70829999999984 551.4921699999998 362.8246599999998 551.4921699999998 362.9018099999998 C 551.4921699999998 362.97890999999976 551.4721699999998 363.0952899999998 551.4479699999997 363.1595099999998 C 551.4233699999997 363.2242099999998 551.3528699999997 363.3304799999998 551.2915999999997 363.3955299999998 C 551.2298999999997 363.4605299999998 551.1285599999997 363.54023999999976 551.0668399999997 363.5727599999998 C 551.0047399999997 363.6053599999998 550.8583399999998 363.6315599999998 550.7415799999998 363.6315599999998 C 550.6248199999998 363.6315599999998 550.4784499999997 363.6044599999998 550.4163199999998 363.5719599999998 C 550.3546199999998 363.53905999999984 549.5814899999998 362.7884399999998 548.6983199999999 361.9039599999998 C 547.8155699999999 361.01910999999984 547.0745199999999 360.2955599999998 547.0511199999999 360.2955599999998 C 547.0278199999999 360.2955599999998 546.2867199999998 361.0190499999998 545.4039199999999 361.9039599999998 C 544.5207199999999 362.7884399999998 543.7476199999999 363.53905999999984 543.6859199999999 363.5719599999998 C 543.6238199999999 363.6045599999998 543.4774199999999 363.6315599999998 543.3606599999999 363.6315599999998 C 543.2438999999999 363.6315599999998 543.0975299999999 363.6052599999998 543.0354 363.5727599999998 C 542.9737 363.54025999999976 542.87235 363.4605899999998 542.81064 363.3955299999998 C 542.7493400000001 363.3305299999998 542.67886 363.2241499999998 542.65427 363.1595099999998 C 542.63007 363.09530999999976 542.61007 362.97894999999977 542.61007 362.9018099999998 C 542.61007 362.8247099999998 542.6296699999999 362.7083199999998 542.65387 362.6440999999998 C 542.67767 362.5793999999998 543.44242 361.7804699999998 544.35267 360.8688999999998 L 546.00817 359.2112999999998 L 544.3343699999999 357.5328999999998 C 543.4136699999999 356.6096499999998 542.6396699999999 355.81359999999984 542.6142699999999 355.7635999999998 C 542.5892699999999 355.7130999999998 542.56837 355.5763699999998 542.56837 355.4591899999998 C 542.56837 355.3415899999998 542.59467 355.1952299999998 542.62717 355.1330999999998 C 542.65977 355.0713999999998 542.7414299999999 354.9679599999998 542.80898 354.9037499999998 C 542.87608 354.83954999999975 542.9857900000001 354.7711399999998 543.05209 354.7511199999998 C 543.11889 354.7311199999998 543.22015 354.71361999999976 543.27727 354.7115199999998 z M 478.73729999999983 348.53159999999986 C 463.99329999999986 348.53259999999983 461.17729999999983 348.54249999999985 461.04229999999984 348.5903999999999 C 460.95389999999986 348.62169999999986 460.83421999999985 348.6913099999999 460.77624999999983 348.7446899999999 C 460.7178499999998 348.7984899999999 460.64489999999984 348.9027299999999 460.61319999999984 348.9765399999999 C 460.58189999999985 349.0503399999999 460.55609999999984 349.1987999999999 460.55609999999984 349.3063899999999 C 460.55609999999984 349.4398299999999 460.5889999999998 349.5586699999999 460.65991999999983 349.6791799999999 C 460.72871999999984 349.7967799999999 460.82338999999985 349.8851899999999 460.94390999999985 349.9431399999999 L 461.12446999999986 350.0307399999999 L 496.4314699999999 350.0307399999999 L 496.6124399999999 349.9248199999999 C 496.7241999999999 349.8593199999999 496.8255299999999 349.7559299999999 496.8768199999999 349.6554299999999 C 496.9277199999999 349.5553499999999 496.9602199999999 349.4094099999999 496.9602199999999 349.2797099999999 C 496.9602199999999 349.1629499999999 496.9327199999999 349.0145099999999 496.8993199999999 348.9494499999999 C 496.8655199999999 348.8844499999999 496.7804799999999 348.7830699999999 496.7100099999999 348.7238599999999 C 496.6399099999999 348.6646599999999 496.5123499999999 348.5966699999999 496.4272799999999 348.5728999999999 C 496.3217799999999 348.5436999999999 490.67597999999987 348.5303999999999 478.7372799999999 348.5316999999999 z M 478.73729999999983 357.78879999999987 C 463.99329999999986 357.78979999999984 461.17729999999983 357.79969999999986 461.04229999999984 357.8475999999999 C 460.95389999999986 357.8788999999999 460.83421999999985 357.9485099999999 460.77624999999983 358.0018899999999 C 460.7178499999998 358.0556899999999 460.64489999999984 358.1599299999999 460.61319999999984 358.2337399999999 C 460.58189999999985 358.3075399999999 460.55609999999984 358.4559999999999 460.55609999999984 358.5635899999999 C 460.55609999999984 358.6970299999999 460.5889999999998 358.8158699999999 460.65991999999983 358.93637999999993 C 460.72871999999984 359.0539799999999 460.82338999999985 359.1423899999999 460.94390999999985 359.2003399999999 L 461.12446999999986 359.28793999999994 L 496.4314699999999 359.28793999999994 L 496.6124399999999 359.1820199999999 C 496.7241999999999 359.1165199999999 496.8255299999999 359.01312999999993 496.8768199999999 358.9126299999999 C 496.9277199999999 358.81254999999993 496.9602199999999 358.6665999999999 496.9602199999999 358.5369099999999 C 496.9602199999999 358.4201499999999 496.9327199999999 358.2717099999999 496.8993199999999 358.2066499999999 C 496.8655199999999 358.1416499999999 496.7804799999999 358.0402699999999 496.7100099999999 357.9810599999999 C 496.6399099999999 357.9218599999999 496.5123499999999 357.8538699999999 496.4272799999999 357.8300999999999 C 496.3217799999999 357.8008999999999 490.67597999999987 357.7875999999999 478.7372799999999 357.7888999999999 z M 471.2520999999998 366.79699999999985 C 462.84759999999983 366.7974199999999 461.1760999999998 366.8070999999999 461.04209999999983 366.85499999999985 C 460.95369999999986 366.88629999999984 460.83401999999984 366.9559199999998 460.7760499999998 367.0092999999998 C 460.7176499999998 367.06309999999985 460.64469999999983 367.16733999999985 460.61299999999983 367.2411399999998 C 460.58169999999984 367.3149399999998 460.55589999999984 367.4633999999998 460.55589999999984 367.5709899999998 C 460.55589999999984 367.70442999999983 460.5887999999998 367.82327999999984 460.65973999999983 367.9437899999998 C 460.72853999999984 368.0613799999998 460.8231999999998 368.1497899999998 460.94370999999984 368.2077499999998 L 461.1242799999998 368.2953499999998 L 481.3702799999998 368.2953499999998 L 481.53207999999984 368.2127499999998 C 481.62087999999983 368.1677499999998 481.73514999999986 368.0722199999998 481.78560999999985 368.0009099999998 C 481.83610999999985 367.9300099999998 481.89444999999984 367.7969999999998 481.91487999999987 367.7052599999998 C 481.93867999999986 367.5997599999998 481.9365799999999 367.4796599999998 481.9088799999999 367.3770899999998 C 481.8850799999999 367.2878899999998 481.8150799999999 367.15523999999976 481.7537499999999 367.0818499999998 C 481.69204999999994 367.0088499999998 481.5656899999999 366.9146299999998 481.4731099999999 366.8725199999998 L 481.3043599999999 366.7975199999998 z" stroke-linecap="round" />
</g>
</g>
</g>
</svg>