<?xml version="1.0" encoding="UTF-8" standalone="no"?>
<svg
   xmlns:dc="http://purl.org/dc/elements/1.1/"
   xmlns:cc="http://creativecommons.org/ns#"
   xmlns:rdf="http://www.w3.org/1999/02/22-rdf-syntax-ns#"
   xmlns:svg="http://www.w3.org/2000/svg"
   xmlns="http://www.w3.org/2000/svg"
   id="svg10"
   xml:space="preserve"
   viewBox="0 0 1024 768"
   y="0px"
   x="0px"
   version="1.1"><metadata
     id="metadata16"><rdf:RDF><cc:Work
         rdf:about=""><dc:format>image/svg+xml</dc:format><dc:type
           rdf:resource="http://purl.org/dc/dcmitype/StillImage" /></cc:Work></rdf:RDF></metadata><defs
     id="defs14" /><g
     transform="matrix(1.078,0,0,1.078,-39.942,-46.851)"
     id="logo-group"><path
       stroke-miterlimit="2"
       d="m 396.2,484.69 h -5.976 l -25.7,75.42 -26.05,-75.42 h -5.8565 l -26.175,75.298 -25.458,-75.298 h -6.4541 l 28.446,83.664 h 6.4541 l 26.055,-75.059 25.936,75.059 h 6.4541 z"
       style="font-variant-ligatures:none;fill:#4a90e2;stroke-width:0;stroke-miterlimit:2"
       id="path641955" /><path
       stroke-miterlimit="2"
       d="m 443.88,561.3 c -3.4661,1.4342 -7.2907,2.1514 -11.235,2.1514 -6.4541,0 -11.832,-1.6733 -16.374,-5.0198 -4.5418,-3.3466 -7.6493,-7.8883 -9.0835,-13.625 l 52.708,-10.279 c -0.35856,-5.4979 -1.6733,-10.398 -4.3027,-14.82 -2.6294,-4.4222 -6.0955,-7.8883 -10.398,-10.398 -4.3027,-2.5099 -9.203,-3.8246 -14.581,-3.8246 -5.8565,0 -11.115,1.4342 -15.657,4.0637 -4.6613,2.749 -8.2469,6.4541 -10.876,11.235 -2.6294,4.7808 -3.8246,10.279 -3.8246,16.374 0,6.215 1.3147,11.593 4.0637,16.374 2.749,4.7808 6.5736,8.6054 11.474,11.235 4.9003,2.749 10.398,4.0637 16.733,4.0637 4.7808,0 9.203,-0.83664 13.386,-2.5099 3.9442,-1.6733 7.4102,-4.1832 10.159,-7.6493 l -3.4661,-3.9442 c -2.3904,2.988 -5.2589,5.1394 -8.725,6.5736 z m -25.936,-47.21 c 3.7051,-2.1514 7.8883,-3.3466 12.669,-3.3466 4.0637,0 7.8883,0.95616 11.235,2.749 3.3466,1.7928 5.976,4.3027 8.1274,7.2907 2.0318,3.1075 3.3466,6.5736 3.9442,10.279 l -47.569,9.3226 c -0.23904,-1.5538 -0.23904,-2.749 -0.23904,-3.7051 0,-4.9003 0.95616,-9.4421 3.1075,-13.386 2.0318,-3.9442 4.9003,-7.0517 8.725,-9.203 z"
       style="font-variant-ligatures:none;fill:#4b9bcd;stroke-width:0;stroke-miterlimit:2"
       id="path641957" /><path
       stroke-miterlimit="2"
       d="m 525.59,509.55 c -4.7808,-2.6294 -10.04,-4.0637 -15.777,-4.0637 -5.4979,0 -10.518,1.3147 -14.94,3.9442 -4.5418,2.6294 -8.0078,6.215 -10.398,10.757 v -40.517 h -5.976 v 88.684 h 5.737 v -14.701 c 2.3904,4.7808 5.8565,8.6054 10.398,11.235 4.5418,2.6294 9.5616,3.9442 15.179,3.9442 5.737,0 10.996,-1.3147 15.777,-4.0637 4.6613,-2.6294 8.3664,-6.4541 10.996,-11.235 2.6294,-4.7808 4.0637,-10.159 4.0637,-16.374 0,-6.0955 -1.4342,-11.593 -4.0637,-16.374 -2.6294,-4.7808 -6.3346,-8.6054 -10.996,-11.235 z m -3.227,50.557 c -3.8246,2.2709 -8.1274,3.3466 -12.908,3.3466 -4.7808,0 -9.0835,-1.0757 -12.908,-3.3466 -3.8246,-2.1514 -6.8126,-5.2589 -8.964,-9.3226 -2.1514,-3.9442 -3.227,-8.4859 -3.227,-13.625 0,-5.0198 1.0757,-9.5616 3.227,-13.625 2.1514,-3.9442 5.1394,-7.0517 8.964,-9.3226 3.8246,-2.1514 8.1274,-3.3466 12.908,-3.3466 4.7808,0 9.0835,1.1952 12.908,3.3466 3.8246,2.2709 6.8126,5.3784 8.964,9.3226 2.1514,4.0637 3.3466,8.6054 3.3466,13.625 0,5.1394 -1.1952,9.6811 -3.3466,13.625 -2.1514,4.0637 -5.1394,7.1712 -8.964,9.3226 z"
       style="font-variant-ligatures:none;fill:#4ca6b8;stroke-width:0;stroke-miterlimit:2"
       id="path641959" /><path
       stroke-miterlimit="2"
       d="m 646.57,505.96 h -5.4979 l -21.036,55.577 -21.155,-55.577 h -5.1394 l -21.275,55.696 -20.796,-55.696 h -5.737 l 23.665,62.389 h 5.4979 l 21.155,-54.143 21.036,54.143 h 5.6174 z"
       style="font-variant-ligatures:none;fill:#4eb2a2;stroke-width:0;stroke-miterlimit:2"
       id="path641961" /><path
       stroke-miterlimit="2"
       d="m 689.82,484.69 h -6.0955 l -38.485,83.664 h 6.5736 l 34.9,-76.971 35.019,76.971 h 6.5736 z"
       style="font-variant-ligatures:none;fill:#4fbd8d;stroke-width:0;stroke-miterlimit:2"
       id="path641963" /><path
       stroke-miterlimit="2"
       d="m 741.59,505.96 v 62.389 h 5.976 V 505.96 Z m -0.47808,-16.494 c 0.95616,0.95616 2.0318,1.3147 3.4661,1.3147 1.3147,0 2.5099,-0.47808 3.4661,-1.4342 0.95616,-0.95616 1.4342,-2.0318 1.4342,-3.4661 0,-1.3147 -0.47808,-2.3904 -1.4342,-3.3466 -0.95616,-0.95616 -2.1514,-1.4342 -3.4661,-1.4342 -1.4342,0 -2.5099,0.47808 -3.4661,1.4342 -0.95616,0.95616 -1.4342,2.1514 -1.4342,3.4661 0,1.4342 0.47808,2.5099 1.4342,3.4661 z"
       style="font-variant-ligatures:none;fill:#50c878;stroke-width:0;stroke-miterlimit:2"
       id="path641965" /><path
       style="fill:#4a90e2;stroke-width:1.3125"
       d="m 511.64,230.51 c -60.244,-0.006 -105.41,0.0175 -105.69,0.054 -0.27439,0.035 -0.83265,0.14886 -1.2406,0.2525 -0.40792,0.1029 -1.0202,0.30284 -1.3617,0.44441 -0.34079,0.14084 -0.82973,0.37291 -1.0851,0.51593 -0.25541,0.14304 -0.71515,0.4466 -1.0216,0.67502 -0.30649,0.22914 -0.75603,0.62613 -0.99902,0.883 -0.24373,0.25687 -0.5838,0.67575 -0.75675,0.93116 -0.17223,0.25542 -0.40793,0.67211 -0.52251,0.92533 -0.11456,0.25322 -0.28314,0.70056 -0.37508,0.99465 l -0.16275,0.53419 -0.0184,96.714 -0.0184,96.705 h 225.93 v -96.39 c 0,-85.906 -0.0118,-96.46 -0.11091,-97.027 -0.0613,-0.34954 -0.21236,-0.89905 -0.33642,-1.2209 -0.12403,-0.32255 -0.41668,-0.87132 -0.6502,-1.2201 -0.23352,-0.34955 -0.69108,-0.88956 -1.0165,-1.2004 -0.32548,-0.31088 -0.86986,-0.74654 -1.2099,-0.96838 -0.34007,-0.22183 -0.85819,-0.51373 -1.1516,-0.64947 -0.29336,-0.13501 -0.78739,-0.3313 -1.0975,-0.43566 -0.31088,-0.10436 -0.86694,-0.26125 -1.2362,-0.34955 l -0.67064,-0.15981 z m -0.10946,5.2528 104.79,0.009 0.43275,0.1299 c 0.23789,0.0715 0.63414,0.22695 0.8808,0.34444 0.24593,0.11749 0.60278,0.35028 0.79252,0.51738 0.18973,0.16639 0.40866,0.4291 0.48746,0.58307 l 0.14304,0.28022 v 19.126 h -215.42 v -19.126 l 0.13938,-0.27075 c 0.0766,-0.14886 0.24957,-0.37362 0.38312,-0.49914 0.13427,-0.12551 0.3875,-0.31744 0.56337,-0.42617 0.17514,-0.10946 0.53052,-0.27804 0.78958,-0.37508 0.25833,-0.0978 0.63999,-0.20579 0.84797,-0.24009 0.21163,-0.0358 46.452,-0.0591 105.17,-0.0533 z m -0.18375,26.243 h 107.71 v 162.89 h -215.43 v -162.88 z m -94.064,-20.352 c -0.26052,0.003 -0.66188,0.0504 -0.8903,0.10581 -0.22913,0.0555 -0.63926,0.20872 -0.91219,0.3408 -0.33714,0.16273 -0.66042,0.40281 -1.0078,0.75018 -0.33787,0.33714 -0.59109,0.67356 -0.7458,0.98881 -0.12844,0.26345 -0.28386,0.69035 -0.34444,0.94868 -0.0613,0.25906 -0.11092,0.66772 -0.11092,0.90854 0,0.24081 0.0496,0.64947 0.11092,0.90853 0.0606,0.25833 0.21601,0.68523 0.34444,0.94868 0.15399,0.31453 0.40866,0.65313 0.7458,0.98955 0.33642,0.33714 0.67502,0.59183 0.98955,0.7458 0.26345,0.12844 0.69035,0.28387 0.94868,0.34444 0.25906,0.0613 0.66772,0.11092 0.90853,0.11092 0.24082,0 0.64948,-0.0496 0.90854,-0.11092 0.25833,-0.0606 0.68523,-0.21601 0.94868,-0.34444 0.31525,-0.15471 0.65167,-0.40793 0.98881,-0.7458 0.3459,-0.3459 0.58745,-0.67064 0.74873,-1.0049 0.13135,-0.27074 0.28679,-0.69764 0.34589,-0.94867 0.0591,-0.25031 0.10728,-0.65239 0.10728,-0.89321 0,-0.24082 -0.0482,-0.64292 -0.10728,-0.89321 -0.0591,-0.25103 -0.21454,-0.67793 -0.34589,-0.94867 -0.16128,-0.33423 -0.40282,-0.65897 -0.74873,-1.0049 -0.33714,-0.33787 -0.67356,-0.5911 -0.98881,-0.7458 -0.26345,-0.12844 -0.69035,-0.28387 -0.94868,-0.34444 -0.25906,-0.0613 -0.68377,-0.10873 -0.94502,-0.10581 z m 13.136,0 c -0.26052,0.003 -0.66188,0.0504 -0.8903,0.10581 -0.22913,0.0555 -0.63926,0.20872 -0.91219,0.3408 -0.33714,0.16273 -0.66042,0.40281 -1.0078,0.75018 -0.33787,0.33714 -0.59109,0.67356 -0.7458,0.98881 -0.12844,0.26345 -0.28386,0.69035 -0.34444,0.94868 -0.0613,0.25906 -0.11092,0.66772 -0.11092,0.90854 0,0.24081 0.0496,0.64947 0.11092,0.90853 0.0606,0.25833 0.21601,0.68523 0.34444,0.94868 0.15399,0.31453 0.40866,0.65313 0.7458,0.98955 0.33642,0.33714 0.67502,0.59183 0.98955,0.7458 0.26345,0.12844 0.69035,0.28387 0.94868,0.34444 0.25906,0.0613 0.66772,0.11092 0.90853,0.11092 0.24082,0 0.64948,-0.0496 0.90854,-0.11092 0.25833,-0.0606 0.68523,-0.21601 0.94868,-0.34444 0.31525,-0.15471 0.65167,-0.40793 0.98881,-0.7458 0.3459,-0.3459 0.58745,-0.67064 0.74873,-1.0049 0.13135,-0.27074 0.28679,-0.69764 0.34589,-0.94867 0.0591,-0.25031 0.10728,-0.65239 0.10728,-0.89321 0,-0.24082 -0.0482,-0.64292 -0.10728,-0.89321 -0.0591,-0.25103 -0.21454,-0.67793 -0.34589,-0.94867 -0.16128,-0.33423 -0.40282,-0.65897 -0.74873,-1.0049 -0.33714,-0.33787 -0.67356,-0.5911 -0.98881,-0.7458 -0.26345,-0.12844 -0.69035,-0.28387 -0.94868,-0.34444 -0.25906,-0.0613 -0.68377,-0.10873 -0.94502,-0.10581 z m 13.136,0 c -0.26052,0.003 -0.66188,0.0504 -0.8903,0.10581 -0.22913,0.0555 -0.63926,0.20872 -0.91219,0.3408 -0.33714,0.16273 -0.66042,0.40281 -1.0078,0.75018 -0.33787,0.33714 -0.59109,0.67356 -0.7458,0.98881 -0.12844,0.26345 -0.28386,0.69035 -0.34444,0.94868 -0.0613,0.25906 -0.11092,0.66772 -0.11092,0.90854 0,0.24081 0.0496,0.64947 0.11092,0.90853 0.0606,0.25833 0.21601,0.68523 0.34444,0.94868 0.15399,0.31453 0.40866,0.65313 0.7458,0.98955 0.33642,0.33714 0.67502,0.59183 0.98955,0.7458 0.26345,0.12844 0.69035,0.28387 0.94868,0.34444 0.25906,0.0613 0.66772,0.11092 0.90853,0.11092 0.24082,0 0.64948,-0.0496 0.90854,-0.11092 0.25833,-0.0606 0.68523,-0.21601 0.94868,-0.34444 0.31525,-0.15471 0.65167,-0.40793 0.98881,-0.7458 0.3459,-0.3459 0.58745,-0.67064 0.74873,-1.0049 0.13135,-0.27074 0.28679,-0.69764 0.34589,-0.94867 0.0591,-0.25031 0.10728,-0.65239 0.10728,-0.89321 0,-0.24082 -0.0482,-0.64292 -0.10728,-0.89321 -0.0591,-0.25103 -0.21454,-0.67793 -0.34589,-0.94867 -0.16128,-0.33423 -0.40282,-0.65897 -0.74873,-1.0049 -0.33714,-0.33787 -0.67356,-0.5911 -0.98881,-0.7458 -0.26345,-0.12844 -0.69035,-0.28387 -0.94868,-0.34444 -0.25906,-0.0613 -0.68377,-0.10873 -0.94502,-0.10581 z m 111.1,49.939 c -16.415,-0.007 -30.176,0.0139 -30.576,0.0474 -0.40137,0.0328 -1.0414,0.11165 -1.423,0.17587 -0.38092,0.0635 -1.0662,0.21236 -1.5216,0.33058 -0.45536,0.11822 -1.1618,0.33277 -1.569,0.47725 -0.4072,0.1445 -1.2004,0.48674 -1.7623,0.76113 -0.5619,0.2744 -1.3143,0.68378 -1.6719,0.91074 -0.35758,0.22622 -0.96327,0.64802 -1.3457,0.93627 -0.38239,0.28898 -1.0538,0.8684 -1.4931,1.2895 -0.43858,0.42034 -1.0596,1.0771 -1.38,1.4595 -0.31963,0.38166 -0.84286,1.0837 -1.161,1.5595 -0.3189,0.47579 -0.83483,1.3792 -1.1464,2.0082 -0.3116,0.62832 -0.70347,1.553 -0.86986,2.0542 -0.16638,0.50061 -0.38457,1.2486 -0.48454,1.6616 -0.1,0.41304 -0.24082,1.1187 -0.3138,1.569 -0.11165,0.69327 -0.13135,1.2793 -0.13135,3.8466 0,2.6015 0.019,3.1518 0.13719,3.9042 0.0752,0.48163 0.24447,1.3041 0.37582,1.828 0.13209,0.52396 0.3605,1.2792 0.50718,1.6784 0.14741,0.39917 0.49477,1.191 0.7728,1.7588 0.27804,0.56775 0.77864,1.4413 1.1121,1.9412 0.33423,0.49988 0.81805,1.1683 1.0756,1.4851 0.25761,0.31744 0.79689,0.90634 1.199,1.3092 0.40209,0.40282 1.0436,0.98152 1.4245,1.2866 0.38166,0.30431 1.0027,0.75968 1.38,1.0107 0.378,0.25176 1.0844,0.66333 1.569,0.91583 0.48529,0.2525 1.2106,0.58891 1.612,0.74726 0.40136,0.15909 0.99246,0.37144 1.3136,0.47288 0.32109,0.10071 0.86329,0.24957 1.2041,0.32985 0.34153,0.081 0.98152,0.20724 1.423,0.28095 l 0.80272,0.13427 h 60.934 l 0.80272,-0.13281 c 0.4415,-0.073 1.1479,-0.21601 1.569,-0.31818 0.4218,-0.10216 1.1442,-0.31598 1.6054,-0.47579 0.46194,-0.15981 1.3318,-0.52981 1.9338,-0.82243 0.60205,-0.29263 1.4558,-0.76988 1.8974,-1.061 0.4415,-0.29044 1.1151,-0.77792 1.496,-1.0829 0.38166,-0.30576 1.0238,-0.88811 1.4281,-1.2946 0.40429,-0.40647 0.95671,-1.0151 1.2282,-1.3515 0.27074,-0.33642 0.7334,-0.97348 1.0275,-1.415 0.29336,-0.4415 0.68378,-1.0822 0.86695,-1.4238 0.18316,-0.34225 0.47944,-0.97057 0.65823,-1.3968 0.17805,-0.42617 0.44369,-1.1435 0.58891,-1.5938 0.14595,-0.45026 0.34224,-1.1851 0.43785,-1.6325 0.0949,-0.44734 0.21673,-1.1085 0.27,-1.4697 0.0701,-0.46704 0.0986,-1.5099 0.0986,-3.6123 0,-2.5119 -0.0205,-3.0869 -0.135,-3.8312 -0.0744,-0.48163 -0.2452,-1.307 -0.37947,-1.8346 -0.13355,-0.52761 -0.36268,-1.2829 -0.50863,-1.6784 -0.14595,-0.39552 -0.47215,-1.1508 -0.72538,-1.677 -0.25322,-0.52687 -0.65824,-1.2727 -0.89978,-1.6573 -0.24155,-0.38458 -0.68085,-1.0209 -0.97495,-1.4142 -0.29409,-0.39261 -1.0114,-1.191 -1.5938,-1.7733 -0.58234,-0.58234 -1.3705,-1.2917 -1.7522,-1.577 -0.38093,-0.2846 -0.93919,-0.67575 -1.2406,-0.8684 -0.30065,-0.19265 -0.8757,-0.52323 -1.2771,-0.73559 -0.40136,-0.21236 -1.002,-0.50207 -1.3347,-0.64364 -0.33277,-0.1423 -0.89979,-0.35684 -1.2603,-0.47798 -0.36049,-0.12041 -0.99099,-0.30431 -1.4019,-0.40866 -0.41085,-0.10436 -1.1566,-0.25906 -1.6587,-0.34299 l -0.91219,-0.15398 z m 25.89,4.5019 c 0.51302,-0.005 1.2523,0.0255 1.6419,0.0679 0.38969,0.0423 1.037,0.1423 1.4384,0.22257 0.40136,0.0803 1.1566,0.28752 1.6784,0.46194 0.52177,0.17368 1.2282,0.44953 1.569,0.61225 0.34153,0.16346 0.9224,0.4758 1.2917,0.69472 0.36926,0.21966 0.91365,0.58089 1.2106,0.80418 0.29628,0.22331 0.77281,0.61591 1.0589,0.87205 0.28606,0.25615 0.74873,0.71807 1.029,1.0268 0.2795,0.30795 0.69472,0.80711 0.92094,1.1085 0.22696,0.30139 0.62322,0.8976 0.88009,1.3252 0.25687,0.42836 0.6305,1.164 0.82972,1.6362 0.19922,0.47142 0.44515,1.1296 0.54658,1.4632 0.10145,0.33277 0.24885,0.91657 0.32766,1.2982 0.0795,0.38093 0.17806,0.97131 0.22038,1.3114 0.0423,0.34007 0.0766,1.1019 0.0766,1.693 0,0.5911 -0.0496,1.4507 -0.10946,1.9098 -0.0606,0.45975 -0.20433,1.2085 -0.31963,1.6645 -0.11537,0.45535 -0.33276,1.1566 -0.48309,1.5581 -0.15106,0.40136 -0.42034,1.0231 -0.60059,1.3814 -0.17951,0.35831 -0.48455,0.90708 -0.67867,1.2201 -0.1941,0.31234 -0.54877,0.82607 -0.78885,1.1413 -0.23936,0.31453 -0.68961,0.84213 -0.99976,1.172 -0.31014,0.32984 -0.85089,0.83995 -1.2004,1.1333 -0.34955,0.29336 -0.96109,0.74945 -1.358,1.0136 -0.39771,0.26345 -1.0837,0.65897 -1.5251,0.87935 -0.4415,0.21966 -1.1143,0.51521 -1.496,0.65677 -0.38093,0.14157 -1.0216,0.33934 -1.423,0.44077 -0.40137,0.10071 -1.091,0.2379 -1.5325,0.30504 -0.51521,0.0773 -1.2603,0.12114 -2.0798,0.12114 -0.81075,0 -1.5704,-0.0438 -2.0798,-0.12041 -0.4415,-0.0657 -1.18,-0.21892 -1.6405,-0.34079 -0.4612,-0.12187 -1.1348,-0.33569 -1.496,-0.47507 -0.36194,-0.13939 -0.98661,-0.41961 -1.388,-0.62175 -0.40137,-0.20287 -1.0443,-0.57431 -1.4281,-0.82535 -0.38457,-0.25176 -0.92606,-0.64656 -1.2041,-0.87861 -0.27804,-0.23207 -0.71444,-0.62248 -0.96985,-0.86767 -0.25541,-0.2452 -0.71296,-0.74143 -1.0165,-1.1027 -0.30432,-0.36122 -0.74727,-0.95232 -0.98516,-1.3136 -0.23717,-0.36122 -0.62102,-1.0348 -0.85235,-1.496 -0.23133,-0.46193 -0.53856,-1.1676 -0.68378,-1.569 -0.14449,-0.40136 -0.32985,-0.99246 -0.41158,-1.3143 -0.081,-0.32109 -0.19995,-0.86329 -0.26417,-1.2041 -0.0656,-0.35248 -0.13281,-1.2245 -0.1547,-2.0214 -0.0248,-0.89249 -0.008,-1.6616 0.0489,-2.1163 0.0482,-0.39261 0.15471,-1.0268 0.23571,-1.4077 0.081,-0.38166 0.27585,-1.0851 0.43275,-1.5638 0.15689,-0.47872 0.47798,-1.2668 0.71442,-1.7514 0.23643,-0.48455 0.62467,-1.1764 0.8633,-1.5376 0.23789,-0.36123 0.62977,-0.90344 0.86985,-1.2041 0.24009,-0.30139 0.69765,-0.81002 1.0158,-1.1311 0.3189,-0.32109 0.82973,-0.7874 1.1348,-1.0362 0.30503,-0.24885 0.84651,-0.64802 1.2034,-0.88664 0.35684,-0.23791 1.0465,-0.63343 1.5325,-0.87862 0.486,-0.24446 1.323,-0.5911 1.8609,-0.77062 0.53709,-0.17879 1.3223,-0.39333 1.7434,-0.47653 0.4218,-0.0832 1.0129,-0.17879 1.3136,-0.21308 0.30139,-0.0336 0.96766,-0.0657 1.4806,-0.0708 z m -36.024,8.4731 c 0.35174,0.0197 0.50353,0.0679 0.71151,0.22622 0.14521,0.11092 0.30941,0.29044 0.36487,0.39845 0.0554,0.10872 0.12338,0.30065 0.15032,0.42836 0.0277,0.12697 0.0118,0.3729 -0.0328,0.54731 l -0.0832,0.31598 -6.5801,6.5934 c -4.523,4.5318 -6.6721,6.6364 -6.8728,6.7305 -0.16055,0.0752 -0.39042,0.13719 -0.51083,0.13719 -0.12035,0 -0.35612,-0.0628 -0.52396,-0.13865 -0.26125,-0.11895 -0.82534,-0.78959 -3.9655,-4.7134 -2.0142,-2.5162 -3.7078,-4.685 -3.764,-4.82 -0.0562,-0.13501 -0.10211,-0.35028 -0.10211,-0.47945 0,-0.12916 0.0693,-0.37873 0.15471,-0.55461 0.0898,-0.18535 0.2722,-0.39698 0.43274,-0.50353 0.15251,-0.10143 0.41157,-0.20213 0.57577,-0.22403 0.19338,-0.0255 0.41378,0.004 0.63123,0.0876 l 0.33351,0.12771 3.0686,3.8406 c 1.6879,2.1126 3.1146,3.8902 3.1701,3.9494 0.0875,0.0941 0.87644,-0.66626 5.9928,-5.7775 3.24,-3.2365 6.0059,-5.9555 6.1467,-6.0409 0.20433,-0.1248 0.34444,-0.15106 0.70275,-0.13062 z m -91.486,-9.8661 c -25.801,0.002 -30.731,0.019 -30.966,0.1029 -0.1547,0.0547 -0.36414,0.1766 -0.46558,0.27001 -0.10217,0.0941 -0.22987,0.27657 -0.28534,0.40575 -0.0547,0.12916 -0.1,0.38896 -0.1,0.57723 0,0.23352 0.0576,0.4415 0.1817,0.65239 0.12041,0.20579 0.28606,0.3605 0.49696,0.46194 l 0.31599,0.15325 h 61.787 l 0.3167,-0.18535 c 0.19558,-0.11457 0.37291,-0.29555 0.46266,-0.47143 0.089,-0.17514 0.14595,-0.43055 0.14595,-0.65751 0,-0.20433 -0.0482,-0.46412 -0.10655,-0.57796 -0.0591,-0.11384 -0.20798,-0.29116 -0.3313,-0.3948 -0.1226,-0.10362 -0.3459,-0.22257 -0.49477,-0.26416 -0.18463,-0.0511 -10.065,-0.0744 -30.958,-0.0722 z m 0,16.2 c -25.801,0.002 -30.731,0.019 -30.966,0.1029 -0.1547,0.0547 -0.36414,0.1766 -0.46558,0.27001 -0.10217,0.0941 -0.22987,0.27657 -0.28534,0.40574 -0.0547,0.12917 -0.1,0.38896 -0.1,0.57724 0,0.23352 0.0576,0.4415 0.1817,0.65239 0.12041,0.20579 0.28606,0.36049 0.49696,0.46194 l 0.31599,0.15324 h 61.787 l 0.3167,-0.18535 c 0.19558,-0.11456 0.37291,-0.29555 0.46266,-0.47142 0.089,-0.17514 0.14595,-0.43055 0.14595,-0.65751 0,-0.20433 -0.0482,-0.46413 -0.10655,-0.57796 -0.0591,-0.11385 -0.20798,-0.29116 -0.3313,-0.3948 -0.1226,-0.10362 -0.3459,-0.22257 -0.49477,-0.26417 -0.18463,-0.0511 -10.065,-0.0744 -30.958,-0.0722 z m -13.099,15.764 c -14.708,7.3e-4 -17.633,0.0175 -17.867,0.10143 -0.15471,0.0547 -0.36414,0.17659 -0.46559,0.27 -0.10216,0.0941 -0.22987,0.27657 -0.28533,0.40575 -0.0547,0.12916 -0.1,0.38896 -0.1,0.57724 0,0.23352 0.0576,0.4415 0.18171,0.65239 0.1204,0.20579 0.28606,0.36049 0.49696,0.46193 l 0.31599,0.15325 h 35.424 l 0.28315,-0.14449 c 0.15544,-0.0788 0.35538,-0.24592 0.44369,-0.37072 0.0883,-0.12405 0.19047,-0.35684 0.22622,-0.51738 0.0416,-0.18463 0.0379,-0.3948 -0.0109,-0.57431 -0.0416,-0.15617 -0.1642,-0.38823 -0.27147,-0.51667 -0.108,-0.12771 -0.32912,-0.29264 -0.49112,-0.36633 l -0.29532,-0.13519 z m 114.72,30.604 c -16.415,-0.008 -30.176,0.0139 -30.576,0.0474 -0.40137,0.0328 -1.0414,0.11169 -1.423,0.17588 -0.38092,0.0635 -1.0662,0.21236 -1.5216,0.33058 -0.45536,0.11825 -1.1618,0.33275 -1.569,0.47725 -0.4072,0.14449 -1.2004,0.48674 -1.7623,0.76113 -0.56191,0.27439 -1.3143,0.68377 -1.6719,0.91073 -0.35758,0.22622 -0.96327,0.64802 -1.3457,0.93627 -0.38239,0.28897 -1.0538,0.8684 -1.4931,1.2895 -0.43857,0.42033 -1.0596,1.0771 -1.38,1.4595 -0.31964,0.38166 -0.84287,1.0837 -1.161,1.5595 -0.3189,0.47579 -0.83483,1.3792 -1.1464,2.0083 -0.3116,0.62832 -0.70348,1.553 -0.86986,2.0542 -0.16639,0.50061 -0.38458,1.2486 -0.48455,1.6616 -0.1,0.41305 -0.24082,1.1187 -0.31379,1.569 -0.11166,0.69326 -0.13136,1.2792 -0.13136,3.8465 0,2.6015 0.019,3.1518 0.1372,3.9042 0.0752,0.48164 0.24446,1.3041 0.37582,1.828 0.13209,0.52397 0.36049,1.2793 0.50717,1.6784 0.14741,0.39917 0.49478,1.191 0.7728,1.7588 0.27804,0.56775 0.77864,1.4412 1.1121,1.9412 0.33423,0.49987 0.81804,1.1683 1.0756,1.4851 0.25761,0.31744 0.79689,0.90635 1.199,1.3092 0.40208,0.40283 1.0435,0.98151 1.4244,1.2866 0.38166,0.3043 1.0027,0.75967 1.38,1.0107 0.378,0.25176 1.0844,0.66335 1.569,0.91584 0.48528,0.2525 1.2106,0.5889 1.612,0.74727 0.40136,0.15907 0.99246,0.37144 1.3136,0.47287 0.32109,0.10067 0.8633,0.24958 1.2041,0.32985 0.34152,0.081 0.98151,0.20725 1.423,0.28096 l 0.80272,0.13427 h 60.934 l 0.80272,-0.13282 c 0.4415,-0.073 1.1479,-0.21601 1.569,-0.31817 0.4218,-0.10211 1.1442,-0.31599 1.6054,-0.4758 0.46193,-0.15981 1.3318,-0.5298 1.9338,-0.82242 0.60205,-0.29264 1.4558,-0.76989 1.8974,-1.0611 0.4415,-0.29043 1.1151,-0.7779 1.496,-1.0829 0.38166,-0.30576 1.0238,-0.8881 1.4281,-1.2946 0.40429,-0.40648 0.95671,-1.0151 1.2282,-1.3515 0.27074,-0.33641 0.73339,-0.97348 1.0275,-1.415 0.29335,-0.4415 0.68377,-1.0822 0.86694,-1.4238 0.18316,-0.34225 0.47944,-0.97057 0.65823,-1.3968 0.17806,-0.42617 0.44369,-1.1435 0.58891,-1.5938 0.14595,-0.45027 0.34225,-1.1851 0.43785,-1.6325 0.0949,-0.44732 0.21673,-1.1085 0.27001,-1.4697 0.0701,-0.46704 0.0986,-1.5099 0.0986,-3.6123 0,-2.5119 -0.0205,-3.0869 -0.13501,-3.8312 -0.0744,-0.48164 -0.2452,-1.307 -0.37947,-1.8346 -0.13355,-0.52761 -0.36268,-1.2829 -0.50863,-1.6784 -0.14595,-0.39554 -0.47215,-1.1508 -0.72538,-1.677 -0.25322,-0.52688 -0.65823,-1.2727 -0.89977,-1.6573 -0.24155,-0.38457 -0.68086,-1.0209 -0.97495,-1.4142 -0.2941,-0.39259 -1.0114,-1.191 -1.5938,-1.7733 -0.58235,-0.58233 -1.3705,-1.2917 -1.7522,-1.577 -0.38093,-0.28461 -0.93919,-0.67576 -1.2406,-0.86841 -0.30066,-0.19266 -0.87571,-0.52322 -1.2771,-0.73559 -0.40136,-0.21236 -1.002,-0.50207 -1.3347,-0.64363 -0.33277,-0.1423 -0.89978,-0.35686 -1.2603,-0.47799 -0.36049,-0.12036 -0.99099,-0.3043 -1.4019,-0.40866 -0.41085,-0.10434 -1.1566,-0.25906 -1.6587,-0.34298 l -0.91218,-0.15398 z m -26.652,4.5019 c 0.51302,-0.005 1.2523,0.0256 1.6419,0.0679 0.38969,0.0423 1.037,0.1423 1.4384,0.22257 0.40136,0.0803 1.1566,0.28752 1.6784,0.46193 0.52178,0.17368 1.2274,0.44953 1.569,0.61226 0.34152,0.16346 0.9224,0.4758 1.2916,0.69472 0.36926,0.21966 0.91365,0.58089 1.2106,0.80419 0.29629,0.2233 0.77282,0.61591 1.0589,0.87205 0.28606,0.25614 0.75237,0.72245 1.037,1.0355 0.2846,0.31306 0.72755,0.85162 0.98516,1.1968 0.25687,0.34444 0.66918,0.97787 0.9151,1.407 0.24666,0.42983 0.62394,1.218 0.83921,1.7514 0.21528,0.53419 0.47361,1.2895 0.57359,1.6784 0.10067,0.38896 0.23644,0.99611 0.30211,1.35 0.0693,0.37437 0.13501,1.2223 0.1569,2.0294 0.0277,1.034 0.008,1.6112 -0.0795,2.2702 -0.0642,0.48674 -0.2109,1.2581 -0.32693,1.7149 -0.11602,0.45755 -0.33349,1.1596 -0.48383,1.561 -0.15105,0.40136 -0.42034,1.0231 -0.60058,1.3814 -0.17951,0.3583 -0.48455,0.90708 -0.67867,1.2201 -0.19411,0.31233 -0.54877,0.82607 -0.78885,1.1413 -0.23936,0.31453 -0.68962,0.84214 -0.99976,1.172 -0.31014,0.32985 -0.85089,0.83995 -1.2004,1.1333 -0.34956,0.29335 -0.96109,0.74945 -1.358,1.0136 -0.39772,0.26344 -1.0837,0.65896 -1.5251,0.87934 -0.4415,0.21966 -1.1143,0.51521 -1.496,0.65678 -0.38093,0.14158 -1.0216,0.33933 -1.423,0.44078 -0.40136,0.10066 -1.091,0.23789 -1.5325,0.30502 -0.51521,0.0773 -1.2603,0.12114 -2.0798,0.12114 -0.81076,0 -1.5704,-0.0438 -2.0798,-0.12035 -0.4415,-0.0656 -1.18,-0.21893 -1.6405,-0.34079 -0.4612,-0.1218 -1.1348,-0.33569 -1.496,-0.47507 -0.36195,-0.13938 -0.98662,-0.41961 -1.388,-0.62175 -0.40136,-0.20287 -1.0443,-0.57431 -1.4281,-0.82535 -0.38457,-0.25177 -0.92606,-0.64655 -1.2041,-0.87862 -0.27804,-0.23206 -0.71443,-0.62247 -0.96984,-0.86766 -0.25541,-0.2452 -0.71296,-0.74143 -1.0165,-1.1027 -0.30432,-0.36123 -0.74727,-0.95232 -0.98517,-1.3136 -0.23716,-0.36123 -0.62102,-1.0348 -0.85235,-1.496 -0.23132,-0.46193 -0.53855,-1.1676 -0.68377,-1.569 -0.14449,-0.40136 -0.32986,-0.99246 -0.41159,-1.3143 -0.081,-0.32109 -0.19994,-0.86328 -0.26416,-1.2041 -0.0656,-0.35245 -0.13281,-1.2245 -0.15471,-2.0214 -0.0248,-0.89247 -0.008,-1.6616 0.049,-2.1163 0.0482,-0.3926 0.1547,-1.0268 0.23571,-1.4077 0.081,-0.38092 0.27585,-1.0851 0.43275,-1.5638 0.15689,-0.47871 0.47798,-1.2668 0.71442,-1.7514 0.23643,-0.48455 0.62467,-1.1764 0.86329,-1.5376 0.23789,-0.36122 0.62978,-0.90343 0.86986,-1.2041 0.24008,-0.30139 0.69765,-0.81003 1.0158,-1.1311 0.3189,-0.32109 0.82972,-0.78739 1.1348,-1.0362 0.30504,-0.24885 0.84651,-0.64802 1.2034,-0.88665 0.35684,-0.2379 1.0464,-0.63342 1.5325,-0.87861 0.48601,-0.24447 1.323,-0.5911 1.8609,-0.77062 0.53708,-0.17879 1.3223,-0.39333 1.7434,-0.47653 0.4218,-0.0832 1.0129,-0.17879 1.3136,-0.21309 0.30139,-0.0336 0.96765,-0.0656 1.4806,-0.0707 z m 37.998,6.7838 c 0.10067,-0.003 0.29701,0.0263 0.43785,0.0656 0.19777,0.0555 0.91145,0.72757 3.1744,2.9912 1.6047,1.6062 2.9512,2.9204 2.992,2.9204 0.0408,0 1.3873,-1.3143 2.992,-2.9204 2.2739,-2.2753 2.9781,-2.9387 3.1853,-3.0014 0.15398,-0.0467 0.41012,-0.0591 0.60496,-0.0299 0.22476,0.0336 0.42544,0.12627 0.59474,0.27585 0.14085,0.12338 0.30358,0.31672 0.36196,0.4291 0.0584,0.11235 0.10579,0.37217 0.10579,0.57796 0,0.20506 -0.0365,0.44442 -0.0803,0.53272 -0.0445,0.0875 -1.3989,1.4806 -3.0102,3.0963 l -2.9292,2.9372 2.8971,2.9008 c 1.593,1.5952 2.9313,2.9934 2.9729,3.1066 0.0423,0.11235 0.0766,0.31599 0.0766,0.45099 0,0.135 -0.035,0.3386 -0.0773,0.45099 -0.043,0.11313 -0.16637,0.29919 -0.27366,0.41303 -0.10802,0.11379 -0.28532,0.25323 -0.39333,0.31014 -0.10867,0.057 -0.36487,0.1029 -0.5692,0.1029 -0.20433,0 -0.46048,-0.0474 -0.56921,-0.10434 -0.10802,-0.0576 -1.4609,-1.3712 -3.0065,-2.919 -1.5448,-1.5485 -2.8417,-2.8147 -2.8825,-2.8147 -0.0408,0 -1.3377,1.2661 -2.8825,2.8147 -1.5456,1.5478 -2.8985,2.8614 -3.0065,2.919 -0.10868,0.057 -0.36488,0.10434 -0.56921,0.10434 -0.20433,0 -0.46047,-0.0459 -0.5692,-0.1029 -0.10802,-0.057 -0.28534,-0.1963 -0.39333,-0.31014 -0.10723,-0.1138 -0.23061,-0.29992 -0.27366,-0.41303 -0.0424,-0.11235 -0.0773,-0.31599 -0.0773,-0.45099 0,-0.135 0.0342,-0.3386 0.0766,-0.45099 0.0416,-0.11314 1.38,-1.5113 2.9729,-3.1066 l 2.8971,-2.9008 -2.9292,-2.9372 c -1.6112,-1.6157 -2.9657,-3.0088 -3.0102,-3.0963 -0.0438,-0.0883 -0.0803,-0.32766 -0.0803,-0.53272 0,-0.20579 0.0459,-0.46194 0.1029,-0.57066 0.057,-0.10802 0.19995,-0.28899 0.31816,-0.40137 0.11747,-0.11235 0.30943,-0.23206 0.42545,-0.26709 0.11681,-0.035 0.29409,-0.0656 0.39407,-0.0693 z m -112.98,-10.77 c -25.801,0.003 -30.731,0.019 -30.966,0.10289 -0.1547,0.0547 -0.36414,0.1766 -0.46558,0.27001 -0.10216,0.0941 -0.22987,0.27657 -0.28534,0.40574 -0.0547,0.12915 -0.1,0.38896 -0.1,0.57723 0,0.23352 0.0576,0.4415 0.1817,0.65239 0.12041,0.20579 0.28606,0.36051 0.49697,0.46194 l 0.31598,0.15325 h 61.78 l 0.31671,-0.18535 c 0.19557,-0.11459 0.37291,-0.29555 0.46266,-0.47143 0.089,-0.17514 0.14595,-0.43055 0.14595,-0.65751 0,-0.20433 -0.0482,-0.46411 -0.10655,-0.57796 -0.0591,-0.11379 -0.20798,-0.29116 -0.3313,-0.39478 -0.12261,-0.10369 -0.3459,-0.22258 -0.49478,-0.26418 -0.18463,-0.0511 -10.065,-0.0744 -30.958,-0.0722 z m 0,16.2 c -25.801,0.003 -30.731,0.019 -30.966,0.1029 -0.1547,0.0547 -0.36414,0.1766 -0.46558,0.27001 -0.10216,0.0941 -0.22987,0.27657 -0.28534,0.40573 -0.0547,0.12915 -0.1,0.38896 -0.1,0.57724 0,0.23352 0.0576,0.4415 0.1817,0.65239 0.12041,0.20579 0.28606,0.36051 0.49697,0.46194 l 0.31598,0.15324 h 61.78 l 0.31671,-0.18535 c 0.19557,-0.11458 0.37291,-0.29555 0.46266,-0.47142 0.089,-0.17514 0.14595,-0.43055 0.14595,-0.65751 0,-0.20433 -0.0482,-0.46411 -0.10655,-0.57796 -0.0591,-0.11379 -0.20798,-0.29117 -0.3313,-0.39479 -0.12261,-0.10369 -0.3459,-0.22257 -0.49478,-0.26418 -0.18463,-0.0511 -10.065,-0.0744 -30.958,-0.0722 z m -13.099,15.764 c -14.708,7.3e-4 -17.633,0.0176 -17.867,0.10146 -0.1547,0.0547 -0.36414,0.17659 -0.46558,0.27 -0.10217,0.0941 -0.22987,0.27657 -0.28534,0.40574 -0.0547,0.12915 -0.1,0.38896 -0.1,0.57723 0,0.23352 0.0576,0.4415 0.1817,0.6524 0.12041,0.20578 0.28606,0.3605 0.49697,0.46193 l 0.31598,0.15325 h 35.431 l 0.28314,-0.1445 c 0.15544,-0.0787 0.35539,-0.24592 0.44369,-0.37071 0.0883,-0.12403 0.19047,-0.35684 0.22623,-0.51739 0.0416,-0.18463 0.0379,-0.3948 -0.0109,-0.57431 -0.0416,-0.15617 -0.16419,-0.38822 -0.27146,-0.51667 -0.10801,-0.1277 -0.32912,-0.29263 -0.49113,-0.36633 l -0.29531,-0.13125 z"
       id="icon" /></g></svg>